<svg width="640" height="480" xmlns="http://www.w3.org/2000/svg">
 <g>
  <title>Layer 1</title>

  <g fill="#ffffff" transform="matrix(3.7396989691564193,0,0,3.7396989691564193,342.1082018879619,353.7975315751401) " class="6zngJAtBA" id="SvgjsG1041">
   <path id="svg_2" d="m56.08824,-21.42959a2,2 0 0 0 0,-4l-27.7,0a2,2 0 0 0 -2,1.6a33,33 0 0 1 -64.68,0a2,2 0 0 0 -2,-1.6l-27.62,0a2,2 0 0 0 0,4l26.1,0a37,37 0 0 0 15.1,21.56l-5.07,5.44l-36.13,0a2,2 0 0 0 0,4l37,0a2,2 0 0 0 1.46,-0.64l6.24,-6.69a36.91,36.91 0 0 0 49.3,-14.19l7.17,5.6a2,2 0 0 0 1.23,0.42l21.6,0a2,2 0 0 0 0,-4l-20.87,0l-7.13,-5.56l-0.12,-0.08a36.61,36.61 0 0 0 2,-5.87l26.12,0.01z"/>
   <path id="svg_3" d="m-28.91176,-30.42959a2,2 0 0 0 -4,0a26.78,26.78 0 0 0 10.53,21.39a2,2 0 0 0 2.47,-3.18a22.81,22.81 0 0 1 -9,-18.21zm23,-27a2,2 0 0 0 0,4a23,23 0 0 1 0,46a22.65,22.65 0 0 1 -4.82,-0.51a2,2 0 0 0 -0.85,3.91a26.68,26.68 0 0 0 5.67,0.6a27,27 0 0 0 0,-54z"/>
   <path id="svg_4" d="m-5.91176,-13.42959a2,2 0 0 0 0,-4a13,13 0 1 1 13,-13a2,2 0 0 0 4,0a17,17 0 1 0 -17,17zm35.9,-26a37.19,37.19 0 0 0 -11.24,-18.57a2,2 0 0 0 -2.67,3a33.11,33.11 0 0 1 10.34,18a2,2 0 0 0 2,1.6l13.67,0a2,2 0 0 0 2,-2l0,-6.41a7,7 0 1 0 -4,0.15l0,4.23l-10.1,0z"/>
   <circle id="svg_5" r="7" cy="-30.42959" cx="-5.91176"/>
   <path id="svg_6" d="m-67.91176,-83.42959l26,0a2,2 0 0 0 1.46,-0.64l5.94,-6.36l49.05,0l16.17,10.67a2,2 0 0 0 1.1,0.33l24.28,0a2,2 0 0 0 0,-4l-23.67,0l-16.17,-10.67a2,2 0 0 0 -1.11,-0.33l-50.52,0a2,2 0 0 0 -1.46,0.64l-5.94,6.36l-25.13,0a2,2 0 0 0 0,4z"/>
   <path id="svg_7" d="m-67.91176,-74.42959l32,0a2,2 0 0 0 1.46,-0.64l6.53,-7a2,2 0 0 0 -2.92,-2.73l-5.94,6.37l-31.13,0a2,2 0 0 0 0,4zm0,8l36.13,0l5.07,5.44a37,37 0 0 0 -15.1,21.56l-10.1,0l0,-9.25a7,7 0 1 0 -4,-0.11l0,11.36a2,2 0 0 0 2,2l13.7,0a2,2 0 0 0 2,-1.6a33.1,33.1 0 0 1 32.3,-26.4a32.72,32.72 0 0 1 12.57,2.48a2,2 0 1 0 1.53,-3.7a36.91,36.91 0 0 0 -31.4,1.54l-6.24,-6.69a2,2 0 0 0 -1.46,-0.63l-37,0a2,2 0 0 0 0,4zm124,-4l-26.67,0l-16.17,-10.67a2,2 0 0 0 -1.1,-0.33l-23.35,0a7,7 0 1 0 0,4l22.74,0l16.18,10.67a2,2 0 0 0 1.1,0.33l27.27,0a2,2 0 0 0 0,-4zm0,89l-24.27,0a2,2 0 0 0 -1.1,0.33l-16.18,10.67l-49.05,0l-5.94,-6.36a2,2 0 0 0 -1.46,-0.64l-26,0a2,2 0 0 0 0,4l25.13,0l5.94,6.36a2,2 0 0 0 1.46,0.64l50.52,0a2,2 0 0 0 1.1,-0.33l16.18,-10.67l23.67,0a2,2 0 0 0 0,-4z"/>
   <path id="svg_8" d="m-67.91176,17.57041l31.13,0l5.94,6.36a2,2 0 1 0 2.93,-2.72l-6.53,-7a2,2 0 0 0 -1.47,-0.64l-32,0a2,2 0 0 0 0,4zm124,-12l-27.27,0a2,2 0 0 0 -1.1,0.33l-16.18,10.67l-22.74,0a7,7 0 1 0 0,4l23.34,0a2,2 0 0 0 1.1,-0.33l16.18,-10.67l26.67,0a2,2 0 0 0 0,-4z"/>
  </g>
  <g fill="#29292E" stroke-width="2.95514px" stroke="#ffffff" transform="matrix(1.848723776204802,0,0,1.848723776204802,568.0497191146229,526.678098137128) " class="text" id="SvgjsG1042">
   <path id="svg_9" d="m-303.7735,-139.88777c3.49,0.43 7.16,0.65 11,0.65c5.39,0 9.85,-0.71 13.36,-2.13c3.51,-1.43 6.15,-3.65 7.9,-6.67c1.76,-3.03 2.64,-6.93 2.64,-11.71c0,-6.97 -1.85,-12.13 -5.54,-15.49c-3.7,-3.36 -9.23,-5.04 -16.6,-5.04c-2.12,0 -4.3,0.12 -6.56,0.35c-2.25,0.24 -4.32,0.56 -6.2,0.98l0,39.06zm20.34,-7.88c-1.83,0.89 -4.17,1.33 -7.04,1.33c-1.81,0 -3.29,-0.06 -4.45,-0.19l0,-26.1c1.58,-0.27 3.08,-0.41 4.51,-0.41c2.81,0 5.12,0.45 6.95,1.36c1.83,0.9 3.2,2.34 4.12,4.3c0.91,1.97 1.37,4.54 1.37,7.7c0,3.21 -0.45,5.79 -1.36,7.74c-0.91,1.96 -2.27,3.38 -4.1,4.27zm38.1,-20.86c-1.99,-0.8 -4.6,-1.2 -7.84,-1.2c-1.56,0 -3.2,0.11 -4.92,0.33c-1.72,0.22 -3.29,0.53 -4.7,0.92l0,6.52c1.29,-0.4 2.65,-0.69 4.09,-0.89c1.44,-0.2 2.76,-0.3 3.98,-0.3c1.68,0 3.01,0.17 3.98,0.5c0.97,0.34 1.67,0.89 2.11,1.67c0.45,0.78 0.67,1.86 0.67,3.23l0,0.38l-4.83,0.41c-4.28,0.27 -7.41,1.19 -9.39,2.74c-1.98,1.56 -2.97,3.76 -2.97,6.6c0,1.72 0.38,3.23 1.15,4.53c0.77,1.29 1.88,2.3 3.33,3.01c1.45,0.72 3.17,1.07 5.16,1.07c1.67,0 3.18,-0.28 4.54,-0.85c1.35,-0.57 2.47,-1.45 3.34,-2.62l0.4,0l0.6,2.93l7.17,0l0,-17.65c0,-3.12 -0.48,-5.59 -1.44,-7.41c-0.96,-1.82 -2.43,-3.12 -4.43,-3.92zm-4.83,23.05c-0.81,0.29 -1.65,0.44 -2.5,0.44c-1.28,0 -2.26,-0.29 -2.93,-0.87c-0.67,-0.57 -1.01,-1.42 -1.01,-2.52c0,-1.12 0.37,-2 1.12,-2.62c0.74,-0.63 1.93,-1 3.55,-1.13l3.97,-0.3l0,5.57c-0.65,0.65 -1.38,1.13 -2.2,1.43zm35.63,-1.02c-1.32,0.23 -2.36,0.35 -3.12,0.35c-1.16,0 -2.09,-0.17 -2.78,-0.5c-0.7,-0.34 -1.22,-0.89 -1.55,-1.67c-0.34,-0.78 -0.5,-1.84 -0.5,-3.18l0,-10.92l7.79,0l0,-6.84l-7.79,0l0,-10.49l-7.12,0l-1.57,10.49l-4.84,0l0,6.84l4.84,0l0,12.28c0,3.8 0.94,6.61 2.83,8.42c1.9,1.81 4.67,2.71 8.33,2.71c1.83,0 3.66,-0.21 5.48,-0.62l0,-6.87zm22.49,-22.03c-1.99,-0.8 -4.6,-1.2 -7.85,-1.2c-1.55,0 -3.19,0.11 -4.91,0.33c-1.72,0.22 -3.29,0.53 -4.7,0.92l0,6.52c1.29,-0.4 2.65,-0.69 4.09,-0.89c1.44,-0.2 2.76,-0.3 3.98,-0.3c1.68,0 3.01,0.17 3.98,0.5c0.96,0.34 1.67,0.89 2.11,1.67c0.45,0.78 0.67,1.86 0.67,3.23l0,0.38l-4.84,0.41c-4.27,0.27 -7.4,1.19 -9.38,2.74c-1.98,1.56 -2.97,3.76 -2.97,6.6c0,1.72 0.38,3.23 1.15,4.53c0.77,1.29 1.88,2.3 3.33,3.01c1.45,0.72 3.17,1.07 5.16,1.07c1.66,0 3.18,-0.28 4.53,-0.85c1.36,-0.57 2.48,-1.45 3.35,-2.62l0.4,0l0.6,2.93l7.17,0l0,-17.65c0,-3.12 -0.48,-5.59 -1.44,-7.41c-0.96,-1.82 -2.43,-3.12 -4.43,-3.92zm-4.83,23.05c-0.82,0.29 -1.65,0.44 -2.5,0.44c-1.29,0 -2.26,-0.29 -2.93,-0.87c-0.67,-0.57 -1.01,-1.42 -1.01,-2.52c0,-1.12 0.37,-2 1.12,-2.62c0.74,-0.63 1.92,-1 3.55,-1.13l3.97,-0.3l0,5.57c-0.65,0.65 -1.39,1.13 -2.2,1.43zm17.3,5.93l8.85,0l0,-40.2l-8.85,0l0,40.2zm15.7,-29.71l0,29.71l8.69,0l0,-20.26c0.63,-0.8 1.44,-1.4 2.42,-1.82c0.98,-0.42 1.98,-0.63 3.01,-0.63c1.38,0 2.42,0.36 3.13,1.08c0.7,0.71 1.06,1.93 1.06,3.65l0,17.98l8.69,0l0,-18.5c0,-4.02 -0.91,-6.97 -2.72,-8.85c-1.81,-1.88 -4.28,-2.83 -7.41,-2.83c-1.76,0 -3.38,0.3 -4.87,0.9c-1.48,0.6 -2.77,1.46 -3.85,2.58l-0.41,0l-0.6,-3.01l-7.14,0zm45.57,-6.56c0.96,-0.84 2.49,-1.27 4.59,-1.27c1.05,0 2.06,0.08 3.02,0.22l0,-6.79c-1.41,-0.22 -2.86,-0.32 -4.35,-0.32c-2.86,0 -5.28,0.49 -7.28,1.49c-1.99,1 -3.49,2.43 -4.52,4.3c-1.02,1.88 -1.53,4.14 -1.53,6.78l0,2.15l-4.84,0l0,6.84l4.84,0l0,22.87l8.63,0l0,-22.87l7.8,0l0,-6.84l-7.8,0l0,-2.56c0,-1.83 0.48,-3.16 1.44,-4zm14.74,35.13c2.16,1.14 4.75,1.71 7.75,1.71c3.01,0 5.59,-0.57 7.76,-1.71c2.16,-1.14 3.83,-2.86 4.99,-5.16c1.17,-2.3 1.76,-5.14 1.76,-8.53c0,-5.05 -1.27,-8.87 -3.79,-11.46c-2.53,-2.59 -6.1,-3.89 -10.72,-3.89c-4.63,0 -8.21,1.29 -10.73,3.88c-2.51,2.58 -3.77,6.42 -3.77,11.52c0,3.37 0.58,6.2 1.75,8.49c1.17,2.29 2.84,4.01 5,5.15zm10.93,-5.7c-0.83,0.54 -1.89,0.81 -3.18,0.81c-1.28,0 -2.34,-0.27 -3.17,-0.81c-0.84,-0.55 -1.48,-1.47 -1.92,-2.76c-0.44,-1.3 -0.66,-3.05 -0.66,-5.26c0,-2.19 0.22,-3.92 0.66,-5.2c0.44,-1.27 1.09,-2.18 1.93,-2.73c0.84,-0.54 1.9,-0.81 3.16,-0.81c1.27,0 2.33,0.27 3.17,0.81c0.84,0.55 1.48,1.47 1.93,2.77c0.44,1.31 0.66,3.06 0.66,5.27c0,2.17 -0.22,3.9 -0.66,5.18c-0.45,1.27 -1.09,2.18 -1.92,2.73zm34.7,6.91c1.94,0.3 3.9,0.45 5.85,0.45c3.37,0 6.26,-0.5 8.68,-1.48c2.42,-0.99 4.27,-2.42 5.55,-4.28c1.29,-1.87 1.93,-4.08 1.93,-6.63c0,-3.08 -0.92,-5.56 -2.75,-7.44c-1.84,-1.88 -4.72,-3.31 -8.63,-4.29l-3.04,-0.76c-1.32,-0.37 -2.35,-0.75 -3.08,-1.14c-0.74,-0.4 -1.26,-0.87 -1.56,-1.42c-0.31,-0.54 -0.47,-1.22 -0.47,-2.03c0,-1.49 0.66,-2.63 1.96,-3.44c1.3,-0.8 3.46,-1.21 6.46,-1.21c1.58,0 3.16,0.11 4.74,0.33c1.59,0.22 3.02,0.52 4.31,0.92l0,-7.2c-1.32,-0.36 -2.8,-0.64 -4.44,-0.85c-1.64,-0.21 -3.34,-0.31 -5.1,-0.31c-5.52,0 -9.69,1.06 -12.52,3.19c-2.82,2.13 -4.23,5.14 -4.23,9.03c0,3.04 0.88,5.51 2.66,7.4c1.77,1.89 4.45,3.28 8.04,4.17l3.01,0.79c1.51,0.39 2.67,0.81 3.51,1.23c0.83,0.43 1.42,0.93 1.78,1.5c0.35,0.57 0.52,1.28 0.52,2.13c0,1.54 -0.57,2.7 -1.73,3.49c-1.16,0.79 -3.04,1.18 -5.63,1.18c-1.75,0 -3.64,-0.16 -5.66,-0.48c-2.02,-0.31 -3.87,-0.74 -5.55,-1.29l0,7.17c1.64,0.55 3.44,0.97 5.39,1.27zm31.34,0c1.95,0.3 3.9,0.45 5.85,0.45c3.37,0 6.27,-0.5 8.68,-1.48c2.42,-0.99 4.27,-2.42 5.56,-4.28c1.28,-1.87 1.93,-4.08 1.93,-6.63c0,-3.08 -0.92,-5.56 -2.76,-7.44c-1.84,-1.88 -4.71,-3.31 -8.63,-4.29l-3.04,-0.76c-1.32,-0.37 -2.35,-0.75 -3.08,-1.14c-0.73,-0.4 -1.25,-0.87 -1.56,-1.42c-0.31,-0.54 -0.46,-1.22 -0.46,-2.03c0,-1.49 0.65,-2.63 1.95,-3.44c1.31,-0.8 3.46,-1.21 6.47,-1.21c1.57,0 3.15,0.11 4.74,0.33c1.58,0.22 3.02,0.52 4.3,0.92l0,-7.2c-1.32,-0.36 -2.8,-0.64 -4.44,-0.85c-1.64,-0.21 -3.34,-0.31 -5.09,-0.31c-5.53,0 -9.7,1.06 -12.52,3.19c-2.83,2.13 -4.24,5.14 -4.24,9.03c0,3.04 0.89,5.51 2.66,7.4c1.78,1.89 4.46,3.28 8.04,4.17l3.02,0.79c1.5,0.39 2.67,0.81 3.5,1.23c0.83,0.43 1.43,0.93 1.78,1.5c0.35,0.57 0.53,1.28 0.53,2.13c0,1.54 -0.58,2.7 -1.74,3.49c-1.16,0.79 -3.03,1.18 -5.62,1.18c-1.76,0 -3.65,-0.16 -5.67,-0.48c-2.01,-0.31 -3.87,-0.74 -5.55,-1.29l0,7.17c1.65,0.55 3.44,0.97 5.39,1.27zm27.12,-0.31c3.5,0.43 7.16,0.65 11,0.65c5.4,0 9.85,-0.71 13.36,-2.13c3.52,-1.43 6.15,-3.65 7.91,-6.67c1.75,-3.03 2.63,-6.93 2.63,-11.71c0,-6.97 -1.84,-12.13 -5.54,-15.49c-3.69,-3.36 -9.22,-5.04 -16.59,-5.04c-2.12,0 -4.31,0.12 -6.56,0.35c-2.26,0.24 -4.33,0.56 -6.21,0.98l0,39.06zm20.34,-7.88c-1.82,0.89 -4.17,1.33 -7.03,1.33c-1.81,0 -3.3,-0.06 -4.45,-0.19l0,-26.1c1.57,-0.27 3.07,-0.41 4.5,-0.41c2.81,0 5.13,0.45 6.96,1.36c1.83,0.9 3.2,2.34 4.11,4.3c0.92,1.97 1.37,4.54 1.37,7.7c0,3.21 -0.45,5.79 -1.35,7.74c-0.91,1.96 -2.28,3.38 -4.11,4.27z"/>
  </g>
 </g>
</svg>