<svg xmlns="http://www.w3.org/2000/svg" version="1.1" xmlns:xlink="http://www.w3.org/1999/xlink" xmlns:svgjs="http://svgjs.com/svgjs" ><g class="overview-logo-color" opacity="1"><defs id="SvgjsDefs1047"><linearGradient id="SvgjsLinearGradient5pIwnupMc" gradientUnits="userSpaceOnUse" x1="-2.8421709430404e-14" y1="267.6000061035157" x2="267.6000061035156" y2="-2.8421709430404e-14"><stop id="SvgjsStop1050" stop-color="#5a5a5a" offset="0.05"></stop><stop id="SvgjsStop1051" stop-color="#1a1a1a" offset="0.95"></stop></linearGradient></defs><g id="SvgjsG1048" transform="scale(1.009703770331855)" opacity="1"><g id="SvgjsG1052" class="xWPNP2n3D" transform="translate(156.1312, 0) scale(0.6563811509483086)" light-content="false" non-strokable="false" fill="url(#SvgjsLinearGradient5pIwnupMc)"><circle cx="133.8" cy="133.8" r="133.8"></circle></g><g id="SvgjsG1053" class="nserc91zEl" transform="translate(198.98922227314705, 42.858032648789575) scale(0.7025902769820773)" light-content="true" non-strokable="false" fill="#ffffff"><path d="M126 73a2 2 0 0 0 0-4H98.3a2 2 0 0 0-2 1.6 33 33 0 0 1-64.68 0 2 2 0 0 0-2-1.6H2a2 2 0 0 0 0 4h26.1a37 37 0 0 0 15.1 21.56L38.13 100H2a2 2 0 0 0 0 4h37a2 2 0 0 0 1.46-.64l6.24-6.69A36.91 36.91 0 0 0 96 82.48l7.17 5.6a2 2 0 0 0 1.23.42H126a2 2 0 0 0 0-4h-20.87L98 78.94l-.12-.08a36.61 36.61 0 0 0 2-5.87z"></path><path d="M41 64a2 2 0 0 0-4 0 26.78 26.78 0 0 0 10.53 21.39A2 2 0 0 0 50 82.21 22.81 22.81 0 0 1 41 64zm23-27a2 2 0 0 0 0 4 23 23 0 0 1 0 46 22.65 22.65 0 0 1-4.82-.51 2 2 0 0 0-.85 3.91A26.68 26.68 0 0 0 64 91a27 27 0 0 0 0-54z"></path><path d="M64 81a2 2 0 0 0 0-4 13 13 0 1 1 13-13 2 2 0 0 0 4 0 17 17 0 1 0-17 17zm35.9-26a37.19 37.19 0 0 0-11.24-18.57 2 2 0 0 0-2.67 3 33.11 33.11 0 0 1 10.34 18 2 2 0 0 0 2 1.6H112a2 2 0 0 0 2-2v-6.41a7 7 0 1 0-4 .15V55z"></path><circle cx="64" cy="64" r="7"></circle><path d="M2 11h26a2 2 0 0 0 1.46-.64L35.4 4h49.05l16.17 10.67a2 2 0 0 0 1.1.33H126a2 2 0 0 0 0-4h-23.67L86.16.33A2 2 0 0 0 85.05 0H34.53a2 2 0 0 0-1.46.64L27.13 7H2a2 2 0 0 0 0 4z"></path><path d="M2 20h32a2 2 0 0 0 1.46-.64l6.53-7a2 2 0 0 0-2.92-2.73L33.13 16H2a2 2 0 0 0 0 4zm0 8h36.13l5.07 5.44A37 37 0 0 0 28.1 55H18v-9.25a7 7 0 1 0-4-.11V57a2 2 0 0 0 2 2h13.7a2 2 0 0 0 2-1.6A33.1 33.1 0 0 1 64 31a32.72 32.72 0 0 1 12.57 2.48 2 2 0 1 0 1.53-3.7 36.91 36.91 0 0 0-31.4 1.54l-6.24-6.69A2 2 0 0 0 39 24H2a2 2 0 0 0 0 4zm124-4H99.33L83.16 13.33a2 2 0 0 0-1.1-.33H58.71a7 7 0 1 0 0 4h22.74l16.18 10.67a2 2 0 0 0 1.1.33H126a2 2 0 0 0 0-4zm0 89h-24.27a2 2 0 0 0-1.1.33L84.45 124H35.4l-5.94-6.36A2 2 0 0 0 28 117H2a2 2 0 0 0 0 4h25.13l5.94 6.36a2 2 0 0 0 1.46.64h50.52a2 2 0 0 0 1.1-.33L102.33 117H126a2 2 0 0 0 0-4z"></path><path d="M2 112h31.13l5.94 6.36a2 2 0 1 0 2.93-2.72l-6.53-7A2 2 0 0 0 34 108H2a2 2 0 0 0 0 4zm124-12H98.73a2 2 0 0 0-1.1.33L81.45 111H58.71a7 7 0 1 0 0 4h23.34a2 2 0 0 0 1.1-.33L99.33 104H126a2 2 0 0 0 0-4z"></path></g><g id="SvgjsG1054" class="text" transform="translate(242.61000061035156, 244.28759938964845) scale(1)" light-content="false" fill="#1a1a1a"><path d="M-230.92 -44.3L-234.26 -44.3C-235.53 -44.3 -237.23 -44.24 -239.36 -44.14C-241.48 -44.03 -242.55 -43.9 -242.55 -43.74L-242.55 -35.36L-242.58 -34.69L-242.58 -29.88C-242.58 -28.67 -242.56 -26.84 -242.52 -24.37L-242.52 -13.65L-242.58 -7.15L-242.58 -2.58L-242.61 -1.52C-242.61 -0.57 -242.42 0.26 -242.05 0.97C-236.74 0.79 -232.31 0.7 -228.78 0.7L-220.99 0.79L-220.25 0.79L-220.14 0.67C-215.39 0.63 -211.19 -0.66 -207.54 -3.22C-201.43 -7.48 -198.37 -14.05 -198.37 -22.94C-198.37 -27.92 -199.79 -32.47 -202.62 -36.59C-203.59 -38.02 -204.49 -39.03 -205.31 -39.64C-209.18 -42.8 -215.89 -44.38 -225.44 -44.38ZM-218.5 -34.16C-216.23 -32.56 -215.1 -28.8 -215.1 -22.88C-215.1 -14.89 -217.02 -10.21 -220.87 -8.85C-221.96 -8.61 -223.52 -8.48 -225.53 -8.44C-226.19 -8.55 -226.58 -8.92 -226.7 -9.52L-226.87 -17.99C-227.03 -23.77 -227.11 -28.35 -227.11 -31.73L-227.11 -33.37L-226.58 -34.45C-226.46 -34.71 -226.23 -35.1 -225.88 -35.62C-225.51 -35.61 -224.92 -35.59 -224.11 -35.57C-223.3 -35.55 -222.66 -35.53 -222.19 -35.51C-220.84 -35.41 -219.61 -34.96 -218.5 -34.16Z M-149.06 0.32C-149.32 -0.26 -149.51 -0.82 -149.65 -1.35L-150.06 -2.81C-150.47 -4.08 -152.3 -9.83 -155.57 -20.07C-158.83 -30.3 -161.44 -38.14 -163.39 -43.59C-163.39 -44.06 -163.97 -44.3 -165.15 -44.3L-167.46 -44.15L-170.27 -44.3L-180.67 -44.15L-185.54 -44.15C-185.6 -44.11 -185.78 -43.57 -186.08 -42.54C-186.38 -41.5 -187.13 -39.21 -188.33 -35.65C-189.54 -32.1 -190.26 -29.93 -190.52 -29.15L-191.31 -26.72L-191.28 -26.72L-191.95 -24.64C-195.29 -14.64 -197.94 -6.26 -199.89 0.5C-199.74 0.71 -199.59 0.89 -199.45 1.03L-197.4 1.03L-196.58 1L-195.7 1L-188.09 0.82L-186.39 0.82L-185.65 0.85C-183.99 0.85 -183.07 0.75 -182.87 0.56C-182.66 -0.28 -182.33 -1.52 -181.9 -3.16C-181.47 -4.8 -181.22 -5.79 -181.14 -6.12L-168.6 -6.24C-167.86 -4.37 -167.4 -2.42 -167.23 -0.41L-167.08 0.21C-167 0.42 -166.93 0.54 -166.87 0.56C-165 0.69 -162.65 0.76 -159.81 0.76L-156.97 0.73L-155.19 0.73L-153.37 0.7L-150.67 0.7C-149.62 0.7 -149.08 0.58 -149.06 0.32ZM-178.07 -15.67L-179.79 -15.67L-179.47 -17.61C-176.86 -29.25 -175.28 -35.13 -174.76 -35.24C-174.33 -35.07 -174.04 -34.86 -173.91 -34.63C-173.87 -34.57 -173.83 -34.53 -173.8 -34.5C-173.77 -34.47 -173.75 -34.41 -173.72 -34.34C-173.69 -34.26 -173.66 -34.2 -173.64 -34.17C-173.62 -34.15 -173.6 -34.09 -173.57 -34C-173.54 -33.91 -173.51 -33.82 -173.47 -33.72C-173.43 -33.62 -172.82 -30.99 -171.65 -25.81L-170.54 -20.8C-170.38 -19.71 -170.16 -18 -169.86 -15.67L-176.87 -15.64Z M-114.9 -33.25L-114.93 -35.6L-114.93 -43.33C-114.93 -43.62 -115.03 -43.82 -115.22 -43.93C-115.42 -44.04 -115.9 -44.09 -116.66 -44.09L-153.96 -43.77C-154.07 -43.81 -154.15 -43.83 -154.19 -43.83C-154.15 -43.61 -154.12 -41.94 -154.1 -38.82L-154.1 -38.03L-154.16 -35.45C-154.16 -33.67 -154.03 -32.53 -153.78 -32.02L-146.51 -31.9L-145.34 -31.96C-145.17 -31.96 -144.89 -31.95 -144.52 -31.92C-144.15 -31.89 -143.9 -31.69 -143.77 -31.33C-143.65 -30.97 -143.52 -29.82 -143.38 -27.89L-143.32 -27.16L-143.64 -11.57C-143.78 -5.65 -143.85 -1.84 -143.85 -0.12C-143.61 0.18 -143.49 0.33 -143.47 0.35L-142.97 0.79C-142.25 0.77 -141.16 0.76 -139.72 0.76L-134.36 0.76L-132.42 0.79L-132.39 0.76L-126.21 0.85C-125.92 0.83 -125.72 0.68 -125.62 0.41L-125.74 -15.12C-125.76 -16.68 -125.77 -19.47 -125.77 -23.5C-125.77 -27.52 -125.75 -30.48 -125.71 -32.37L-115.11 -32.29C-114.97 -32.29 -114.9 -32.61 -114.9 -33.25Z M-69.05 0.32C-69.31 -0.26 -69.5 -0.82 -69.64 -1.35L-70.05 -2.81C-70.46 -4.08 -72.29 -9.83 -75.56 -20.07C-78.82 -30.3 -81.43 -38.14 -83.38 -43.59C-83.38 -44.06 -83.96 -44.3 -85.14 -44.3L-87.45 -44.15L-90.26 -44.3L-100.66 -44.15L-105.53 -44.15C-105.59 -44.11 -105.77 -43.57 -106.07 -42.54C-106.37 -41.5 -107.12 -39.21 -108.33 -35.65C-109.53 -32.1 -110.25 -29.93 -110.51 -29.15L-111.3 -26.72L-111.27 -26.72L-111.94 -24.64C-115.28 -14.64 -117.93 -6.26 -119.88 0.5C-119.73 0.71 -119.58 0.89 -119.44 1.03L-117.39 1.03L-116.57 1L-115.69 1L-108.08 0.82L-106.38 0.82L-105.64 0.85C-103.98 0.85 -103.06 0.75 -102.86 0.56C-102.65 -0.28 -102.32 -1.52 -101.89 -3.16C-101.46 -4.8 -101.21 -5.79 -101.13 -6.12L-88.59 -6.24C-87.85 -4.37 -87.39 -2.42 -87.22 -0.41L-87.07 0.21C-86.99 0.42 -86.92 0.54 -86.87 0.56C-84.99 0.69 -82.64 0.76 -79.8 0.76L-76.96 0.73L-75.18 0.73L-73.36 0.7L-70.66 0.7C-69.61 0.7 -69.07 0.58 -69.05 0.32ZM-98.06 -15.67L-99.79 -15.67L-99.46 -17.61C-96.85 -29.25 -95.27 -35.13 -94.75 -35.24C-94.32 -35.07 -94.03 -34.86 -93.9 -34.63C-93.86 -34.57 -93.82 -34.53 -93.79 -34.5C-93.76 -34.47 -93.74 -34.41 -93.71 -34.34C-93.68 -34.26 -93.65 -34.2 -93.63 -34.17C-93.61 -34.15 -93.59 -34.09 -93.56 -34C-93.53 -33.91 -93.5 -33.82 -93.46 -33.72C-93.42 -33.62 -92.81 -30.99 -91.64 -25.81L-90.53 -20.8C-90.37 -19.71 -90.15 -18 -89.85 -15.67L-96.86 -15.64Z M-67.73 -3.13L-67.82 0.09L-67.85 0.59C-67.54 0.78 -67.29 0.93 -67.09 1.03L-50.68 0.76L-49.69 0.76C-49.43 0.64 -49.26 0.48 -49.16 0.26L-49.39 -8.26C-49.39 -8.4 -49.42 -8.53 -49.48 -8.64L-49.48 -8.7C-49.54 -8.82 -49.57 -8.96 -49.57 -9.14L-49.78 -32.99L-49.78 -43.59L-49.57 -43.59C-49.59 -43.87 -49.62 -44.03 -49.66 -44.09C-50.83 -43.97 -52.99 -43.92 -56.13 -43.92C-59.28 -43.92 -62.94 -44.04 -67.12 -44.3C-67.22 -44.16 -67.27 -43.86 -67.27 -43.39C-67.27 -42.92 -67.23 -42.38 -67.15 -41.78L-67.15 -40.81C-67.15 -39.56 -67.12 -38.32 -67.06 -37.09C-67.29 -28.46 -67.41 -19.89 -67.41 -11.4C-67.63 -9.85 -67.73 -7.1 -67.73 -3.13Z M1.58 -20.51C1.58 -29.73 1.51 -37.57 1.38 -44.03L-0.79 -44.03L-8.14 -44.18C-11 -44.18 -12.42 -44.1 -12.42 -43.95L-12.54 -20.07L-13.54 -20.01C-13.57 -20.13 -14.63 -22.87 -16.7 -28.23C-18.77 -33.59 -20.53 -38.34 -21.97 -42.48L-22.15 -43.07L-22.15 -42.98C-22.38 -43.76 -22.56 -44.19 -22.68 -44.27C-36.13 -44.13 -42.86 -43.97 -42.86 -43.8L-42.92 -41.37C-43.15 -34.94 -43.27 -25.46 -43.27 -12.92L-43.42 -1.49L-43.45 -0.91L-43.45 -0.38C-43.45 -0.11 -43.12 0.33 -42.48 0.94L-42.39 1L-40.28 0.94L-39.7 0.94L-35.27 0.82L-34.37 0.82C-32.61 0.82 -30.76 0.85 -28.83 0.91C-28.44 0.87 -28.24 0.41 -28.24 -0.47L-28.24 -3.75L-28.36 -11.69L-28.36 -19.63L-28.33 -22.62L-27.28 -22.76L-21.68 -7.91C-19.84 -2.54 -18.78 0.3 -18.49 0.62C-16.57 0.63 -13.66 0.64 -9.76 0.64L-0.56 0.53L0.21 0.53C1.04 0.53 1.52 0.45 1.64 0.29L1.61 -1.08L1.61 -2.55L1.55 -7.71L1.55 -18.54Z M41.72 -42.86C41.72 -43.31 41.63 -43.66 41.44 -43.9C41.25 -44.15 40.89 -44.27 40.34 -44.27L39.9 -44.24L38.91 -44.24L28.86 -44.36L14.71 -44.21L12.71 -44.21L11.98 -44.24C9.33 -44.24 8 -44.11 8 -43.86L7.82 -3.11C7.82 -2.21 7.86 -1.11 7.94 0.18C8.19 0.59 8.34 0.85 8.38 0.97L25.14 0.82C25.49 0.78 25.66 0.47 25.66 -0.12L25.66 -2.87L25.69 -3.87L25.49 -15.53C29.75 -15.62 33.62 -15.77 37.12 -15.97L38.7 -15.91L39.08 -15.91C39.61 -15.91 40 -16.02 40.25 -16.23C40.51 -16.45 40.63 -16.87 40.63 -17.52L40.63 -27.33C40.11 -27.69 38.67 -27.86 36.31 -27.86C33.96 -27.86 30.34 -27.66 25.46 -27.25C25.4 -27.89 25.37 -28.55 25.37 -29.24L25.43 -31.82L25.43 -32.67L32.2 -32.7C36.16 -32.7 39.29 -32.79 41.57 -32.99C41.65 -35.08 41.69 -37.46 41.69 -40.14Z M59.44 -22.27L59.56 -23.76C59.56 -25.26 59.77 -26.9 60.19 -28.68C60.61 -30.46 61.02 -31.62 61.42 -32.17C61.82 -32.71 62.42 -33.24 63.21 -33.75C64 -34.26 64.92 -34.51 65.98 -34.51C68.09 -34.51 69.66 -33.6 70.71 -31.77C71.75 -29.95 72.28 -26.76 72.28 -22.21C72.28 -17.73 71.81 -14.43 70.87 -12.3C70.5 -11.5 70.06 -10.87 69.57 -10.4C69.07 -9.93 68.45 -9.55 67.72 -9.24C66.99 -8.94 66.09 -8.79 65.02 -8.79C63.96 -8.79 63 -9.16 62.14 -9.9C61.34 -10.61 60.75 -11.52 60.37 -12.66C59.99 -13.79 59.71 -14.92 59.55 -16.05C59.38 -17.19 59.3 -18.26 59.3 -19.28C59.3 -20.29 59.34 -21.21 59.41 -22.03L59.41 -22.12C59.43 -22.2 59.44 -22.25 59.44 -22.27ZM42.6 -22.03C42.6 -12.48 45.62 -5.74 51.68 -1.82C55.25 0.53 59.83 1.7 65.42 1.7C68.68 1.66 71.97 1.07 75.29 -0.07C78.61 -1.22 81.18 -2.84 83 -4.95L84.35 -6.74C87.24 -10.41 88.68 -15.74 88.68 -22.73C88.68 -25.88 88.32 -28.65 87.6 -31.05C86.88 -33.46 85.37 -36.08 83.09 -38.94C81.89 -40.52 80.24 -41.83 78.13 -42.86C74.6 -44.6 70.67 -45.47 66.34 -45.47C62.02 -45.47 57.98 -44.54 54.24 -42.67C50.5 -40.81 47.59 -38.07 45.5 -34.45C44.62 -32.81 43.98 -31.05 43.59 -29.17C43.2 -27.28 42.89 -25.12 42.66 -22.68Z M112.56 -12.1C112.44 -12.1 112.35 -12.11 112.29 -12.13C112.47 -10.39 112.7 -9.04 112.97 -8.07C113.24 -7.1 113.78 -6.04 114.58 -4.89C115.77 -2.51 118.13 -0.79 121.64 0.26C125.16 1.32 128.71 1.85 132.3 1.85C135.23 1.57 137.99 1.11 140.57 0.47C149.45 -1.74 153.9 -6.56 153.9 -14C153.9 -16.8 153.14 -19.24 151.63 -21.34C150.11 -23.44 147.28 -25.2 143.12 -26.6L143.12 -26.57C141.79 -27 140.13 -27.45 138.15 -27.92C136.17 -28.39 134.97 -28.68 134.56 -28.8L133.54 -29.06C132.97 -29.22 132.55 -29.33 132.29 -29.4C132.03 -29.47 131.63 -29.6 131.1 -29.81C130.58 -30.01 130.19 -30.21 129.93 -30.41C129.68 -30.61 129.44 -30.87 129.21 -31.2C128.99 -31.53 128.88 -31.95 128.89 -32.46C128.9 -32.97 129.32 -33.49 130.14 -34.03C130.96 -34.57 131.94 -34.83 133.1 -34.83L133.21 -34.83C134.7 -34.83 135.58 -34.48 135.85 -33.78C135.97 -33.49 136.07 -33.19 136.17 -32.9C136.41 -32.2 137.12 -31.85 138.31 -31.85C142.28 -31.85 146.83 -31.94 151.96 -32.14L152.72 -32.9C152.53 -35.01 152.05 -36.78 151.29 -38.22C150.53 -39.65 149.12 -41.11 147.07 -42.6L147.1 -42.6C143.9 -44.63 139.49 -45.64 133.89 -45.64C126.84 -45.64 121.31 -43.96 117.3 -40.58C115.92 -39.4 114.79 -37.89 113.94 -36.04C113.08 -34.18 112.65 -32.09 112.65 -29.77C112.65 -26.56 113.69 -24.01 115.77 -22.12C117.85 -20.22 121.22 -18.65 125.89 -17.4C126.61 -17.17 127.51 -16.95 128.58 -16.76L130.25 -16.32L130.2 -16.32C130.31 -16.28 130.98 -16.16 132.2 -15.97C133.42 -15.77 134.35 -15.49 134.97 -15.13C135.6 -14.77 136.17 -14.4 136.7 -14.02C137.23 -13.64 137.49 -12.93 137.49 -11.89C137.49 -10.86 137.06 -10.01 136.2 -9.36C135.34 -8.71 134.21 -8.38 132.82 -8.38C131.42 -8.38 130.42 -8.85 129.81 -9.79C129.56 -10.18 129.3 -10.7 129.04 -11.37C128.77 -12.03 128.45 -12.36 128.06 -12.36Z M156.04 -12.1C155.92 -12.1 155.83 -12.11 155.77 -12.13C155.95 -10.39 156.17 -9.04 156.45 -8.07C156.72 -7.1 157.26 -6.04 158.06 -4.89C159.25 -2.51 161.6 -0.79 165.12 0.26C168.63 1.32 172.19 1.85 175.78 1.85C178.71 1.57 181.46 1.11 184.04 0.47C192.93 -1.74 197.37 -6.56 197.37 -14C197.37 -16.8 196.62 -19.24 195.1 -21.34C193.59 -23.44 190.75 -25.2 186.59 -26.6L186.59 -26.57C185.26 -27 183.61 -27.45 181.63 -27.92C179.64 -28.39 178.45 -28.68 178.04 -28.8L177.01 -29.06C176.45 -29.22 176.03 -29.33 175.77 -29.4C175.5 -29.47 175.11 -29.6 174.58 -29.81C174.05 -30.01 173.66 -30.21 173.41 -30.41C173.15 -30.61 172.92 -30.87 172.69 -31.2C172.47 -31.53 172.36 -31.95 172.37 -32.46C172.38 -32.97 172.79 -33.49 173.61 -34.03C174.43 -34.57 175.42 -34.83 176.57 -34.83L176.69 -34.83C178.17 -34.83 179.05 -34.48 179.33 -33.78C179.44 -33.49 179.55 -33.19 179.65 -32.9C179.88 -32.2 180.6 -31.85 181.79 -31.85C185.75 -31.85 190.3 -31.94 195.44 -32.14L196.2 -32.9C196.01 -35.01 195.53 -36.78 194.77 -38.22C194 -39.65 192.6 -41.11 190.55 -42.6L190.58 -42.6C187.37 -44.63 182.97 -45.64 177.36 -45.64C170.31 -45.64 164.79 -43.96 160.78 -40.58C159.39 -39.4 158.27 -37.89 157.41 -36.04C156.55 -34.18 156.12 -32.09 156.12 -29.77C156.12 -26.56 157.16 -24.01 159.24 -22.12C161.32 -20.22 164.7 -18.65 169.37 -17.4C170.09 -17.17 170.99 -16.95 172.06 -16.76L173.73 -16.32L173.67 -16.32C173.79 -16.28 174.46 -16.16 175.68 -15.97C176.9 -15.77 177.82 -15.49 178.45 -15.13C179.07 -14.77 179.65 -14.4 180.18 -14.02C180.7 -13.64 180.97 -12.93 180.97 -11.89C180.97 -10.86 180.54 -10.01 179.68 -9.36C178.82 -8.71 177.69 -8.38 176.29 -8.38C174.9 -8.38 173.9 -8.85 173.29 -9.79C173.04 -10.18 172.78 -10.7 172.51 -11.37C172.25 -12.03 171.92 -12.36 171.53 -12.36Z M212.75 -44.3L209.41 -44.3C208.14 -44.3 206.45 -44.24 204.32 -44.14C202.19 -44.03 201.12 -43.9 201.12 -43.74L201.12 -35.36L201.09 -34.69L201.09 -29.88C201.09 -28.67 201.11 -26.84 201.15 -24.37L201.15 -13.65L201.09 -7.15L201.09 -2.58L201.06 -1.52C201.06 -0.57 201.25 0.26 201.62 0.97C206.93 0.79 211.36 0.7 214.89 0.7L222.69 0.79L223.42 0.79L223.54 0.67C228.28 0.63 232.48 -0.66 236.13 -3.22C242.25 -7.48 245.3 -14.05 245.3 -22.94C245.3 -27.92 243.89 -32.47 241.05 -36.59C240.08 -38.02 239.18 -39.03 238.36 -39.64C234.49 -42.8 227.78 -44.38 218.23 -44.38ZM225.18 -34.16C227.44 -32.56 228.57 -28.8 228.57 -22.88C228.57 -14.89 226.65 -10.21 222.8 -8.85C221.71 -8.61 220.16 -8.48 218.14 -8.44C217.48 -8.55 217.09 -8.92 216.97 -9.52L216.8 -17.99C216.64 -23.77 216.56 -28.35 216.56 -31.73L216.56 -33.37L217.09 -34.45C217.21 -34.71 217.44 -35.1 217.79 -35.62C218.16 -35.61 218.75 -35.59 219.57 -35.57C220.38 -35.55 221.02 -35.53 221.48 -35.51C222.83 -35.41 224.06 -34.96 225.18 -34.16Z"></path></g><g id="SvgjsG1055" class="text" transform="translate(243.67999267578125, 293.4176006866455) scale(1)" light-content="false" fill="#1a1a1a"><path d="M-243.62 -1.57L-243.66 0.04L-243.68 0.29C-243.52 0.39 -243.39 0.46 -243.3 0.51L-235.09 0.38L-234.6 0.38C-234.47 0.32 -234.38 0.24 -234.33 0.13L-234.45 -4.13C-234.45 -4.2 -234.46 -4.26 -234.49 -4.32L-234.49 -4.35C-234.52 -4.41 -234.54 -4.48 -234.54 -4.57L-234.64 -16.49L-234.64 -21.8L-234.54 -21.8C-234.55 -21.93 -234.56 -22.02 -234.58 -22.05C-235.17 -21.99 -236.25 -21.96 -237.82 -21.96C-239.39 -21.96 -241.22 -22.02 -243.31 -22.15C-243.36 -22.08 -243.38 -21.93 -243.38 -21.69C-243.38 -21.46 -243.36 -21.19 -243.33 -20.89L-243.33 -20.41C-243.33 -19.78 -243.31 -19.16 -243.28 -18.54C-243.4 -14.23 -243.46 -9.95 -243.46 -5.7C-243.57 -4.93 -243.62 -3.55 -243.62 -1.57Z M-219.68 -17.52L-223.58 -17.53L-223.58 -8.77L-223.56 0.01L-219.18 0.01L-214.82 0L-214.82 -7.81L-214.83 -8.06L-214.83 -8.28C-214.84 -8.39 -214.85 -8.61 -214.85 -8.92C-214.85 -10.34 -214.42 -11.04 -213.57 -11.04C-212.78 -11.04 -212.39 -10.3 -212.39 -8.8L-212.44 -7.31L-212.42 0.01L-203.85 0.01L-203.86 -2.78L-203.86 -11.79C-203.83 -11.86 -203.82 -11.95 -203.82 -12.07C-203.82 -13.11 -204.06 -14.09 -204.55 -15.02C-205.04 -15.95 -205.72 -16.71 -206.59 -17.29C-207.47 -17.87 -208.39 -18.16 -209.35 -18.16C-211.39 -18.16 -212.91 -17.47 -213.89 -16.08L-214.13 -15.79C-214.22 -15.68 -214.46 -15.14 -214.85 -14.15L-215.13 -15.25C-215.24 -15.69 -215.36 -16.13 -215.49 -16.57C-215.62 -17.01 -215.71 -17.33 -215.75 -17.53Z M-192.04 -17.18L-192.04 -16.63L-193.76 -16.63L-193.76 -14.43L-193.75 -12.22L-192.08 -12.22L-192.08 0C-190.11 0.02 -188.67 0.03 -187.76 0.03L-184.7 0.01L-184.7 -12.2L-182.31 -12.2L-182.31 -16.7C-182.46 -16.71 -182.66 -16.71 -182.91 -16.71L-183.57 -16.71C-183.98 -16.71 -184.34 -16.74 -184.65 -16.8L-184.65 -17.21C-184.64 -17.25 -184.64 -17.28 -184.64 -17.31C-184.64 -17.33 -184.65 -17.37 -184.67 -17.43C-184.67 -18.77 -184.28 -19.58 -183.51 -19.86C-183.35 -19.85 -183.1 -19.85 -182.75 -19.85L-182.25 -19.85L-182.25 -22.97C-183.97 -23 -185.6 -23.01 -187.15 -23.01C-188.7 -23.01 -189.73 -22.83 -190.25 -22.46C-190.81 -21.97 -191.25 -21.28 -191.57 -20.39C-191.9 -19.5 -192.07 -18.82 -192.07 -18.35Z M-150.71 -8.86C-150.71 -12.56 -152.31 -15.18 -155.5 -16.71L-155.79 -16.85C-157.28 -17.71 -159.08 -18.15 -161.2 -18.15C-161.3 -18.15 -161.36 -18.13 -161.4 -18.09C-161.52 -18.09 -161.61 -18.11 -161.67 -18.13L-161.65 -18.12C-161.7 -18.13 -161.75 -18.13 -161.78 -18.13C-161.82 -18.13 -161.86 -18.13 -161.89 -18.12L-162.52 -18.13C-162.61 -18.11 -162.75 -18.09 -162.96 -18.08C-163.17 -18.07 -163.31 -18.06 -163.38 -18.05L-163.85 -18C-165.01 -17.85 -165.92 -17.61 -166.56 -17.3L-167.07 -17.11C-168.56 -16.56 -169.88 -15.55 -171.03 -14.08L-171.25 -13.73L-171.25 -13.74C-171.38 -13.6 -171.45 -13.48 -171.45 -13.37C-171.99 -12.84 -172.35 -11.71 -172.54 -10L-172.52 -10L-172.55 -9.84C-172.55 -9.8 -172.54 -9.77 -172.51 -9.73L-172.51 -9.49C-172.54 -9.43 -172.55 -9.36 -172.55 -9.27C-172.55 -6.7 -171.99 -4.72 -170.88 -3.31C-170.41 -2.71 -169.69 -2.09 -168.73 -1.45C-167.76 -0.81 -166.71 -0.31 -165.57 0.02C-164.43 0.36 -163 0.53 -161.27 0.53C-159.54 0.53 -157.79 0.12 -156.01 -0.7C-154.22 -1.52 -152.83 -2.7 -151.84 -4.22L-151.85 -4.22C-151.14 -5.51 -150.77 -6.96 -150.74 -8.57L-150.74 -8.69C-150.74 -8.71 -150.73 -8.76 -150.71 -8.86ZM-159.82 -8.77C-159.82 -5.83 -160.36 -4.37 -161.45 -4.37C-161.73 -4.37 -161.98 -4.52 -162.21 -4.84C-162.43 -5.16 -162.6 -5.55 -162.71 -6.03C-162.81 -6.5 -162.9 -6.95 -162.95 -7.38C-163 -7.8 -163.03 -8.31 -163.03 -8.9C-163.03 -9.49 -162.96 -10.17 -162.82 -10.93C-162.68 -11.69 -162.49 -12.25 -162.25 -12.6C-162.02 -12.96 -161.75 -13.14 -161.44 -13.14C-161.13 -13.14 -160.87 -13 -160.66 -12.71C-160.14 -12.03 -159.86 -10.72 -159.82 -8.77Z M-140.76 -17.53L-140.76 -8.73L-140.75 0.01L-135.55 0.01L-130.33 0L-130.33 -2.7L-130.36 -4.23C-130.36 -6.17 -130 -7.62 -129.28 -8.58C-129.04 -8.9 -128.77 -9.15 -128.45 -9.35C-128.13 -9.55 -127.74 -9.72 -127.28 -9.84C-126.81 -9.97 -126.36 -10.03 -125.92 -10.03C-125.48 -10.03 -125.16 -10.01 -124.96 -9.96L-124.96 -18.13L-125.5 -18.13C-125.55 -18.15 -125.64 -18.16 -125.79 -18.16C-126.48 -18.15 -127.31 -17.96 -128.27 -17.58L-128.6 -17.45L-128.54 -17.46C-128.87 -17.3 -129.04 -17.2 -129.07 -17.14L-129.66 -16.8C-130.68 -16.1 -131.38 -14.91 -131.74 -13.24L-132.25 -13.24C-132.29 -13.43 -132.42 -14.21 -132.65 -15.59L-132.97 -17.55L-136.87 -17.55Z M-95.79 -14.59C-96.36 -15.57 -97.1 -16.4 -97.99 -17.1C-98.87 -17.8 -99.74 -18.15 -100.59 -18.15L-101.38 -18.15C-102.22 -18.15 -103.07 -17.77 -103.91 -17C-104.76 -16.23 -105.5 -15.3 -106.13 -14.21C-106.32 -14.92 -106.59 -15.92 -106.95 -17.2L-107.05 -17.55L-111.08 -17.55L-115.09 -17.53L-115.09 -8.79L-115.08 0.01L-110.39 0.01L-105.68 0L-105.68 -8.06L-105.71 -8.94C-105.71 -10.3 -105.25 -11.01 -104.33 -11.06C-103.55 -10.83 -103.16 -10.07 -103.16 -8.8L-103.19 -7.85L-103.17 0.01L-99.11 0.01L-95.04 0L-95.04 -7.69L-95.07 -8.7C-95.07 -10.26 -94.63 -11.04 -93.74 -11.04C-92.95 -11.04 -92.55 -10.34 -92.55 -8.92L-92.57 -8.6L-92.55 0.01L-83.67 0.01L-83.67 -8.98C-83.67 -9.26 -83.68 -9.76 -83.7 -10.46L-83.67 -11.03C-83.67 -11.15 -83.71 -11.24 -83.78 -11.29C-83.74 -11.43 -83.72 -11.61 -83.72 -11.83C-83.72 -12.05 -83.85 -12.62 -84.11 -13.54L-84.22 -13.93C-84.45 -14.74 -84.9 -15.48 -85.58 -16.14C-86.96 -17.48 -88.55 -18.15 -90.35 -18.15C-92.16 -18.15 -93.97 -16.96 -95.79 -14.59Z M-66.22 -9.73L-66.9 -9.62L-67.38 -9.58C-69 -9.43 -70.1 -9.29 -70.66 -9.16C-72.87 -8.62 -73.97 -7.16 -73.97 -4.79C-73.97 -3.7 -73.68 -2.73 -73.08 -1.9C-71.89 -0.28 -70.13 0.53 -67.79 0.53L-67.67 0.53C-67.58 0.53 -66.99 0.43 -65.87 0.25C-65.12 0.15 -64.02 -0.25 -62.58 -0.95C-62.43 -0.95 -62.2 -1.12 -61.9 -1.46C-61.59 -1.79 -61.37 -2.09 -61.24 -2.36C-60.96 -1.34 -60.66 -0.54 -60.35 0.04C-60.15 0.03 -59.85 0.03 -59.46 0.03L-58.93 0.04L-52.31 0.04L-52.46 -0.28C-52.74 -1.11 -52.88 -1.99 -52.88 -2.92L-52.88 -3.22L-52.87 -3.35C-52.87 -3.44 -52.88 -3.51 -52.91 -3.56L-52.91 -3.69L-52.88 -4.69C-52.88 -4.83 -52.89 -4.92 -52.89 -4.94L-52.89 -6.64L-52.82 -7.65C-52.82 -7.83 -52.86 -8.04 -52.92 -8.26C-52.92 -9.63 -53.03 -10.87 -53.25 -12C-53.75 -14.65 -55.2 -16.45 -57.58 -17.39C-58.29 -17.66 -58.87 -17.83 -59.34 -17.89C-59.81 -17.96 -60.12 -17.99 -60.26 -17.99C-60.41 -17.99 -60.52 -17.99 -60.59 -18L-61.01 -18.06C-61.49 -18.13 -61.8 -18.16 -61.93 -18.16L-62.59 -18.13L-62.78 -18.13C-62.84 -18.16 -62.9 -18.18 -62.96 -18.18L-63.43 -18.13L-64.31 -18.09C-65.94 -18.03 -67.58 -17.67 -69.24 -17.01C-70.89 -16.35 -72.01 -15.27 -72.58 -13.77C-72.89 -12.99 -73.06 -12.26 -73.11 -11.59L-65.55 -11.59C-65.12 -11.59 -64.85 -11.58 -64.74 -11.56C-64.63 -11.54 -64.55 -11.57 -64.5 -11.65C-64.5 -13.24 -64.03 -14.03 -63.09 -14.03L-63.02 -14.03C-62.64 -14.03 -62.31 -13.88 -62.03 -13.58C-61.75 -13.28 -61.61 -12.99 -61.61 -12.71C-61.61 -12.44 -61.58 -12.26 -61.52 -12.16C-61.52 -11.68 -61.59 -11.28 -61.73 -10.97C-62 -10.35 -62.81 -9.99 -64.16 -9.89L-64.95 -9.79C-65.14 -9.74 -65.39 -9.71 -65.73 -9.71L-66.08 -9.71ZM-61.42 -6.33L-61.42 -5.89L-61.43 -4.98L-61.46 -4.83C-61.78 -4.31 -62.3 -4.04 -63.03 -4.04C-63.37 -4.04 -63.69 -4.23 -63.98 -4.6C-64.26 -4.97 -64.41 -5.38 -64.41 -5.83C-64.41 -6.28 -64.31 -6.63 -64.11 -6.89C-63.91 -7.15 -63.69 -7.33 -63.44 -7.43C-63.2 -7.54 -62.87 -7.66 -62.46 -7.81C-62.05 -7.95 -61.74 -8.09 -61.52 -8.2C-61.44 -7.75 -61.41 -7.29 -61.41 -6.8Z M-31.42 0.45C-31.37 0.49 -31.28 0.51 -31.14 0.51C-29.85 0.51 -28.43 0.21 -26.88 -0.38L-26.32 -0.64C-25.98 -0.8 -25.71 -0.91 -25.51 -0.98C-22.86 -2.28 -21.38 -4.5 -21.08 -7.63L-23.9 -7.65L-25.31 -7.65L-26.72 -7.66L-27.27 -7.66C-28.79 -7.66 -29.92 -7.64 -30.67 -7.6C-30.67 -7.1 -30.76 -6.55 -30.95 -5.95C-31.13 -5.34 -31.48 -5.04 -31.97 -5.04C-32.24 -5.04 -32.5 -5.23 -32.76 -5.62C-33.02 -6.02 -33.17 -6.58 -33.22 -7.31L-33.06 -7.31L-33.2 -7.46C-33.21 -7.53 -33.22 -7.61 -33.22 -7.68L-33.26 -8.53L-33.28 -8.99C-33.26 -9.05 -33.24 -9.24 -33.23 -9.55C-33.13 -11.84 -32.64 -13.01 -31.78 -13.07L-31.49 -12.89C-31.12 -12.52 -30.86 -11.77 -30.7 -10.65L-30.63 -10.11L-21.46 -10.11L-21.12 -9.99C-21.29 -11.21 -21.61 -12.31 -22.1 -13.3L-22.13 -13.4C-23.22 -15.43 -25.43 -16.89 -28.74 -17.77L-28.77 -17.77C-28.77 -17.76 -28.76 -17.75 -28.75 -17.75L-29.04 -17.84C-29.75 -18.06 -30.51 -18.16 -31.34 -18.16C-33.53 -18.16 -35.36 -17.9 -36.82 -17.37L-38.8 -16.32C-40.77 -15.27 -42.07 -13.38 -42.68 -10.63C-42.85 -9.89 -42.93 -9.3 -42.93 -8.87C-42.93 -8.44 -42.91 -8.06 -42.87 -7.75L-42.83 -7.44C-42.57 -5.6 -42.02 -4.13 -41.17 -3.03L-40.91 -2.72C-39.82 -1.43 -38.16 -0.51 -35.93 0.01C-35.27 0.22 -34.74 0.32 -34.35 0.32C-33.77 0.46 -33.19 0.53 -32.59 0.53Z M-2.22 -23.12L-11.27 -23.09L-11.26 -21.11C-11.24 -20.71 -11.23 -20.04 -11.23 -19.1L-2.21 -19.1ZM-11.42 -23.09L-11.27 -23.09L-11.27 -23.23ZM-2.16 -4.64L-2.16 -5.1C-2.15 -5.13 -2.15 -5.15 -2.15 -5.16L-2.15 -5.61L-2.19 -6.39L-2.19 -7.16L-2.18 -8.99C-2.18 -9.64 -2.19 -10.74 -2.22 -12.3C-2.25 -13.85 -2.27 -15.1 -2.28 -16.03L-2.29 -17.42C-2.29 -17.48 -2.3 -17.5 -2.32 -17.5C-2.34 -17.5 -2.37 -17.5 -2.41 -17.49L-7.41 -17.55L-7.63 -17.53L-8.68 -17.53L-8.87 -17.52L-9.24 -17.53L-9.66 -17.53L-9.91 -17.55L-11.05 -17.53L-11.05 -17.09L-11.21 -5.82C-11.27 -4.55 -11.3 -2.95 -11.3 -1.03L-11.3 -0.37L-11.29 -0.09L-11.29 0.01C-10.96 0.05 -10.03 0.07 -8.5 0.07L-7.89 0.01L-2.56 0.01L-2.29 -0.01C-2.26 -0.03 -2.23 -0.32 -2.19 -0.88C-2.15 -1.44 -2.13 -1.91 -2.13 -2.31L-2.15 -4.51Z M29.66 -8.86C29.66 -12.56 28.06 -15.18 24.87 -16.71L24.57 -16.85C23.09 -17.71 21.29 -18.15 19.17 -18.15C19.07 -18.15 19 -18.13 18.96 -18.09C18.85 -18.09 18.76 -18.11 18.7 -18.13L18.71 -18.12C18.67 -18.13 18.62 -18.13 18.58 -18.13C18.54 -18.13 18.51 -18.13 18.48 -18.12L17.85 -18.13C17.76 -18.11 17.61 -18.09 17.4 -18.08C17.19 -18.07 17.05 -18.06 16.99 -18.05L16.52 -18C15.36 -17.85 14.45 -17.61 13.81 -17.3L13.29 -17.11C11.81 -16.56 10.49 -15.55 9.34 -14.08L9.12 -13.73L9.12 -13.74C8.98 -13.6 8.91 -13.48 8.91 -13.37C8.38 -12.84 8.02 -11.71 7.83 -10L7.85 -10L7.82 -9.84C7.82 -9.8 7.83 -9.77 7.86 -9.73L7.86 -9.49C7.83 -9.43 7.82 -9.36 7.82 -9.27C7.82 -6.7 8.37 -4.72 9.49 -3.31C9.95 -2.71 10.67 -2.09 11.64 -1.45C12.61 -0.81 13.66 -0.31 14.8 0.02C15.93 0.36 17.37 0.53 19.1 0.53C20.82 0.53 22.58 0.12 24.36 -0.7C26.14 -1.52 27.53 -2.7 28.53 -4.22L28.51 -4.22C29.23 -5.51 29.6 -6.96 29.63 -8.57L29.63 -8.69C29.63 -8.71 29.64 -8.76 29.66 -8.86ZM20.55 -8.77C20.55 -5.83 20 -4.37 18.92 -4.37C18.64 -4.37 18.38 -4.52 18.16 -4.84C17.93 -5.16 17.77 -5.55 17.66 -6.03C17.55 -6.5 17.47 -6.95 17.42 -7.38C17.36 -7.8 17.34 -8.31 17.34 -8.9C17.34 -9.49 17.41 -10.17 17.55 -10.93C17.69 -11.69 17.88 -12.25 18.11 -12.6C18.35 -12.96 18.62 -13.14 18.93 -13.14C19.23 -13.14 19.5 -13 19.71 -12.71C20.23 -12.03 20.51 -10.72 20.55 -8.77ZM15.14 -20.65L17.82 -20.7C18.51 -20.71 19.02 -20.76 19.32 -20.86C19.63 -20.96 19.99 -21.25 20.41 -21.72C20.83 -22.2 21.49 -22.94 22.38 -23.93C23.27 -24.92 23.91 -25.64 24.3 -26.09L24.3 -26.13L18.17 -26.28L17.15 -26.28C17.09 -26.21 16.85 -25.87 16.43 -25.25L13.97 -21.06L14.19 -20.64L14.91 -20.64Z M43.59 -17.52L39.69 -17.53L39.69 -8.77L39.71 0.01L44.09 0.01L48.45 0L48.45 -7.81L48.44 -8.06L48.44 -8.28C48.43 -8.39 48.42 -8.61 48.42 -8.92C48.42 -10.34 48.85 -11.04 49.7 -11.04C50.49 -11.04 50.89 -10.3 50.89 -8.8L50.83 -7.31L50.86 0.01L59.43 0.01L59.41 -2.78L59.41 -11.79C59.44 -11.86 59.45 -11.95 59.45 -12.07C59.45 -13.11 59.21 -14.09 58.72 -15.02C58.23 -15.95 57.55 -16.71 56.68 -17.29C55.8 -17.87 54.88 -18.16 53.92 -18.16C51.88 -18.16 50.36 -17.47 49.38 -16.08L49.14 -15.79C49.05 -15.68 48.82 -15.14 48.42 -14.15L48.15 -15.25C48.03 -15.69 47.91 -16.13 47.78 -16.57C47.65 -17.01 47.57 -17.33 47.52 -17.53Z M106.45 -13.73L109.67 -13.87L109.78 -13.84C109.66 -14.65 109.2 -15.41 108.39 -16.1C107.59 -16.79 106.74 -17.26 105.86 -17.5C104.98 -17.74 103.95 -17.9 102.79 -17.99C102.32 -18.02 102.04 -18.04 101.94 -18.05L99.36 -18.16L97.5 -18.06C97.44 -18.08 97.33 -18.09 97.15 -18.09C96.97 -18.09 96.65 -18.04 96.18 -17.94C95.71 -17.83 95.35 -17.76 95.1 -17.72C92.6 -17.4 90.79 -16.71 89.68 -15.64C88.79 -14.79 88.35 -13.57 88.35 -12C88.35 -10.24 89.08 -8.9 90.56 -7.98C90.86 -7.8 91.22 -7.63 91.63 -7.47C92.04 -7.31 92.42 -7.19 92.78 -7.1C93.13 -7 93.54 -6.91 94.01 -6.83C94.47 -6.74 94.88 -6.67 95.22 -6.63C95.57 -6.58 95.97 -6.53 96.43 -6.47C96.89 -6.4 97.24 -6.35 97.47 -6.31C97.71 -6.27 98.07 -6.24 98.56 -6.2C99.04 -6.16 99.44 -6.11 99.75 -6.06C100.06 -6 100.39 -5.92 100.75 -5.8C101.12 -5.68 101.39 -5.51 101.57 -5.27C101.76 -5.03 101.85 -4.73 101.85 -4.37C101.85 -4.02 101.69 -3.73 101.35 -3.5C101.02 -3.28 100.57 -3.16 99.99 -3.16C99.42 -3.16 98.91 -3.3 98.47 -3.57C98.03 -3.85 97.81 -4.2 97.81 -4.63C97.81 -4.77 97.81 -4.86 97.82 -4.92C97.01 -4.92 95.82 -4.91 94.26 -4.9C92.69 -4.89 91.45 -4.88 90.53 -4.88C89.61 -4.88 88.89 -4.9 88.38 -4.94C88.39 -2.68 90.23 -1.1 93.91 -0.19L93.91 -0.21C95.64 0.28 97.26 0.53 98.78 0.53L98.94 0.51L100.01 0.51L100.37 0.53C101.3 0.53 101.97 0.46 102.39 0.32C103.09 0.32 103.91 0.19 104.86 -0.09L105.35 -0.21C105.53 -0.22 105.68 -0.26 105.79 -0.32C107.29 -0.81 108.52 -1.6 109.5 -2.69C110.48 -3.78 110.99 -5.02 111.04 -6.43C110.92 -7.71 110.64 -8.69 110.2 -9.36C109.96 -9.65 109.76 -9.83 109.62 -9.9C108.88 -10.54 108.18 -10.95 107.51 -11.15C106.85 -11.35 106.08 -11.51 105.21 -11.63C104.72 -11.69 104.32 -11.75 104 -11.8C103.68 -11.85 103.21 -11.9 102.59 -11.94C101.97 -11.98 101.43 -12.02 100.97 -12.06C100.5 -12.09 100.04 -12.17 99.57 -12.28C99.1 -12.4 98.73 -12.59 98.48 -12.86C98.22 -13.13 98.09 -13.44 98.09 -13.78C98.09 -14.13 98.22 -14.39 98.5 -14.58C98.77 -14.77 99.12 -14.87 99.55 -14.87C99.98 -14.87 100.38 -14.76 100.73 -14.53C101.09 -14.31 101.33 -14.03 101.44 -13.71C103.1 -13.73 104.33 -13.74 105.12 -13.74Z M142.45 -8.86C142.45 -12.56 140.85 -15.18 137.66 -16.71L137.36 -16.85C135.88 -17.71 134.08 -18.15 131.96 -18.15C131.86 -18.15 131.79 -18.13 131.75 -18.09C131.64 -18.09 131.55 -18.11 131.49 -18.13L131.5 -18.12C131.45 -18.13 131.41 -18.13 131.37 -18.13C131.33 -18.13 131.3 -18.13 131.27 -18.12L130.64 -18.13C130.55 -18.11 130.4 -18.09 130.19 -18.08C129.98 -18.07 129.84 -18.06 129.78 -18.05L129.31 -18C128.14 -17.85 127.24 -17.61 126.6 -17.3L126.08 -17.11C124.6 -16.56 123.28 -15.55 122.13 -14.08L121.91 -13.73L121.91 -13.74C121.77 -13.6 121.7 -13.48 121.7 -13.37C121.17 -12.84 120.81 -11.71 120.62 -10L120.63 -10L120.61 -9.84C120.61 -9.8 120.62 -9.77 120.65 -9.73L120.65 -9.49C120.62 -9.43 120.61 -9.36 120.61 -9.27C120.61 -6.7 121.16 -4.72 122.28 -3.31C122.74 -2.71 123.46 -2.09 124.43 -1.45C125.4 -0.81 126.45 -0.31 127.59 0.02C128.72 0.36 130.16 0.53 131.88 0.53C133.61 0.53 135.37 0.12 137.15 -0.7C138.93 -1.52 140.32 -2.7 141.32 -4.22L141.3 -4.22C142.02 -5.51 142.39 -6.96 142.42 -8.57L142.42 -8.69C142.42 -8.71 142.43 -8.76 142.45 -8.86ZM133.33 -8.77C133.33 -5.83 132.79 -4.37 131.71 -4.37C131.43 -4.37 131.17 -4.52 130.95 -4.84C130.72 -5.16 130.56 -5.55 130.45 -6.03C130.34 -6.5 130.26 -6.95 130.21 -7.38C130.15 -7.8 130.13 -8.31 130.13 -8.9C130.13 -9.49 130.2 -10.17 130.34 -10.93C130.48 -11.69 130.67 -12.25 130.9 -12.6C131.14 -12.96 131.41 -13.14 131.72 -13.14C132.02 -13.14 132.28 -13 132.5 -12.71C133.02 -12.03 133.3 -10.72 133.33 -8.77Z M152.66 -23L152.69 0.01L161.65 0.01L161.65 -22.98C159.27 -23 157.51 -23.01 156.38 -23.01Z M181.47 -23.12L172.42 -23.09L172.44 -21.11C172.46 -20.71 172.47 -20.04 172.47 -19.1L181.49 -19.1ZM172.28 -23.09L172.42 -23.09L172.42 -23.23ZM181.53 -4.64L181.53 -5.1C181.54 -5.13 181.55 -5.15 181.55 -5.16L181.55 -5.61L181.5 -6.39L181.5 -7.16L181.52 -8.99C181.52 -9.64 181.5 -10.74 181.47 -12.3C181.45 -13.85 181.43 -15.1 181.42 -16.03L181.4 -17.42C181.4 -17.48 181.39 -17.5 181.37 -17.5C181.35 -17.5 181.32 -17.5 181.28 -17.49L176.29 -17.55L176.07 -17.53L175.01 -17.53L174.82 -17.52L174.46 -17.53L174.03 -17.53L173.78 -17.55L172.64 -17.53L172.64 -17.09L172.48 -5.82C172.42 -4.55 172.39 -2.95 172.39 -1.03L172.39 -0.37L172.41 -0.09L172.41 0.01C172.74 0.05 173.67 0.07 175.19 0.07L175.81 0.01L181.14 0.01L181.4 -0.01C181.43 -0.03 181.47 -0.32 181.5 -0.88C181.54 -1.44 181.56 -1.91 181.56 -2.31L181.55 -4.51Z M203.95 -17.4L203.95 -17.31C203.95 -17.13 204.03 -16.79 204.2 -16.29L203.74 -16.08C203.68 -16.15 203.54 -16.26 203.32 -16.41L203.33 -16.39L203.03 -16.58C201.51 -17.63 200.16 -18.15 198.97 -18.15L197.72 -18.06L197.5 -18.08C196.11 -17.92 194.97 -17.25 194.1 -16.06C193.24 -14.88 192.61 -13.6 192.21 -12.23C191.85 -10.82 191.67 -9.31 191.67 -7.72C191.67 -5.31 192.34 -3.33 193.67 -1.79C194.99 -0.24 196.63 0.53 198.57 0.53C199.77 0.53 200.79 0.34 201.61 -0.04C202.44 -0.42 203.32 -1.03 204.26 -1.86L204.84 -0.83C204.94 -0.55 205.09 -0.24 205.3 0.09L212.77 0.09L212.75 -22.78L208.36 -22.76L203.99 -22.76L203.99 -18.88ZM200.81 -8.39C200.81 -9.74 201.08 -10.95 201.62 -12.01C201.91 -12.6 202.25 -12.89 202.64 -12.89C203.02 -12.89 203.38 -12.6 203.7 -12.01C204.23 -11.06 204.49 -9.79 204.49 -8.2C204.49 -5.91 203.98 -4.54 202.97 -4.1C202.89 -4.05 202.79 -4.03 202.66 -4.03C202.33 -4.03 202 -4.26 201.68 -4.71C201.36 -5.16 201.16 -5.54 201.09 -5.83L201.11 -5.82C200.9 -6.38 200.8 -6.93 200.8 -7.47L200.8 -7.88Z M230.32 -9.73L229.64 -9.62L229.16 -9.58C227.54 -9.43 226.45 -9.29 225.88 -9.16C223.67 -8.62 222.57 -7.16 222.57 -4.79C222.57 -3.7 222.87 -2.73 223.46 -1.9C224.65 -0.28 226.42 0.53 228.75 0.53L228.88 0.53C228.96 0.53 229.56 0.43 230.67 0.25C231.42 0.15 232.52 -0.25 233.97 -0.95C234.11 -0.95 234.34 -1.12 234.65 -1.46C234.95 -1.79 235.17 -2.09 235.3 -2.36C235.58 -1.34 235.88 -0.54 236.19 0.04C236.4 0.03 236.7 0.03 237.09 0.03L237.61 0.04L244.23 0.04L244.09 -0.28C243.8 -1.11 243.66 -1.99 243.66 -2.92L243.66 -3.22L243.68 -3.35C243.68 -3.44 243.66 -3.51 243.63 -3.56L243.63 -3.69L243.66 -4.69C243.66 -4.83 243.66 -4.92 243.65 -4.94L243.65 -6.64L243.72 -7.65C243.72 -7.83 243.69 -8.04 243.62 -8.26C243.62 -9.63 243.51 -10.87 243.3 -12C242.79 -14.65 241.34 -16.45 238.96 -17.39C238.26 -17.66 237.67 -17.83 237.2 -17.89C236.73 -17.96 236.43 -17.99 236.28 -17.99C236.13 -17.99 236.03 -17.99 235.96 -18L235.53 -18.06C235.05 -18.13 234.75 -18.16 234.61 -18.16L233.95 -18.13L233.76 -18.13C233.7 -18.16 233.64 -18.18 233.58 -18.18L233.12 -18.13L232.24 -18.09C230.61 -18.03 228.96 -17.67 227.31 -17.01C225.65 -16.35 224.54 -15.27 223.96 -13.77C223.66 -12.99 223.48 -12.26 223.43 -11.59L230.99 -11.59C231.42 -11.59 231.69 -11.58 231.8 -11.56C231.92 -11.54 232 -11.57 232.05 -11.65C232.05 -13.24 232.52 -14.03 233.45 -14.03L233.53 -14.03C233.91 -14.03 234.24 -13.88 234.51 -13.58C234.79 -13.28 234.93 -12.99 234.93 -12.71C234.93 -12.44 234.96 -12.26 235.02 -12.16C235.02 -11.68 234.95 -11.28 234.82 -10.97C234.54 -10.35 233.73 -9.99 232.38 -9.89L231.59 -9.79C231.41 -9.74 231.15 -9.71 230.82 -9.71L230.46 -9.71ZM235.12 -6.33L235.12 -5.89L235.11 -4.98L235.08 -4.83C234.77 -4.31 234.24 -4.04 233.51 -4.04C233.17 -4.04 232.85 -4.23 232.57 -4.6C232.28 -4.97 232.13 -5.38 232.13 -5.83C232.13 -6.28 232.23 -6.63 232.43 -6.89C232.64 -7.15 232.86 -7.33 233.1 -7.43C233.35 -7.54 233.67 -7.66 234.08 -7.81C234.49 -7.95 234.81 -8.09 235.02 -8.2C235.1 -7.75 235.14 -7.29 235.14 -6.8Z"></path></g></g></g>
</svg>