<svg xmlns="http://www.w3.org/2000/svg" version="1.1" xmlns:xlink="http://www.w3.org/1999/xlink" xmlns:svgjs="http://svgjs.com/svgjs" width="1000" height="1000" overflow="visible"><g class="overview-logo-color" opacity="1"><defs id="SvgjsDefs1274"></defs><g id="SvgjsG1275" transform="scale(0.42256794727399855)" opacity="1"><g id="SvgjsG1276" class="X4zDxinCi" transform="translate(59.30850000000001, 0.00005616240277403505) scale(2.1622890624999997)" light-content="false" non-strokable="false" fill="#0f0f0f"><path d="M126 73a2 2 0 0 0 0-4H98.3a2 2 0 0 0-2 1.6 33 33 0 0 1-64.68 0 2 2 0 0 0-2-1.6H2a2 2 0 0 0 0 4h26.1a37 37 0 0 0 15.1 21.56L38.13 100H2a2 2 0 0 0 0 4h37a2 2 0 0 0 1.46-.64l6.24-6.69A36.91 36.91 0 0 0 96 82.48l7.17 5.6a2 2 0 0 0 1.23.42H126a2 2 0 0 0 0-4h-20.87L98 78.94l-.12-.08a36.61 36.61 0 0 0 2-5.87z"></path><path d="M41 64a2 2 0 0 0-4 0 26.78 26.78 0 0 0 10.53 21.39A2 2 0 0 0 50 82.21 22.81 22.81 0 0 1 41 64zm23-27a2 2 0 0 0 0 4 23 23 0 0 1 0 46 22.65 22.65 0 0 1-4.82-.51 2 2 0 0 0-.85 3.91A26.68 26.68 0 0 0 64 91a27 27 0 0 0 0-54z"></path><path d="M64 81a2 2 0 0 0 0-4 13 13 0 1 1 13-13 2 2 0 0 0 4 0 17 17 0 1 0-17 17zm35.9-26a37.19 37.19 0 0 0-11.24-18.57 2 2 0 0 0-2.67 3 33.11 33.11 0 0 1 10.34 18 2 2 0 0 0 2 1.6H112a2 2 0 0 0 2-2v-6.41a7 7 0 1 0-4 .15V55z"></path><circle cx="64" cy="64" r="7"></circle><path d="M2 11h26a2 2 0 0 0 1.46-.64L35.4 4h49.05l16.17 10.67a2 2 0 0 0 1.1.33H126a2 2 0 0 0 0-4h-23.67L86.16.33A2 2 0 0 0 85.05 0H34.53a2 2 0 0 0-1.46.64L27.13 7H2a2 2 0 0 0 0 4z"></path><path d="M2 20h32a2 2 0 0 0 1.46-.64l6.53-7a2 2 0 0 0-2.92-2.73L33.13 16H2a2 2 0 0 0 0 4zm0 8h36.13l5.07 5.44A37 37 0 0 0 28.1 55H18v-9.25a7 7 0 1 0-4-.11V57a2 2 0 0 0 2 2h13.7a2 2 0 0 0 2-1.6A33.1 33.1 0 0 1 64 31a32.72 32.72 0 0 1 12.57 2.48 2 2 0 1 0 1.53-3.7 36.91 36.91 0 0 0-31.4 1.54l-6.24-6.69A2 2 0 0 0 39 24H2a2 2 0 0 0 0 4zm124-4H99.33L83.16 13.33a2 2 0 0 0-1.1-.33H58.71a7 7 0 1 0 0 4h22.74l16.18 10.67a2 2 0 0 0 1.1.33H126a2 2 0 0 0 0-4zm0 89h-24.27a2 2 0 0 0-1.1.33L84.45 124H35.4l-5.94-6.36A2 2 0 0 0 28 117H2a2 2 0 0 0 0 4h25.13l5.94 6.36a2 2 0 0 0 1.46.64h50.52a2 2 0 0 0 1.1-.33L102.33 117H126a2 2 0 0 0 0-4z"></path><path d="M2 112h31.13l5.94 6.36a2 2 0 1 0 2.93-2.72l-6.53-7A2 2 0 0 0 34 108H2a2 2 0 0 0 0 4zm124-12H98.73a2 2 0 0 0-1.1.33L81.45 111H58.71a7 7 0 1 0 0 4h23.34a2 2 0 0 0 1.1-.33L99.33 104H126a2 2 0 0 0 0-4z"></path></g><g id="SvgjsG1277" class="text" transform="translate(140.7100067138672, 347.2830467822658) scale(1)" light-content="false" fill="#4f4f4f"><path d="M-106.41 -21.83C-106.41 -28.51 -108.26 -33.68 -111.97 -37.34C-115.68 -41 -120.87 -42.83 -127.53 -42.83L-140.71 -42.83L-140.71 0L-128.79 0C-121.58 0 -116.05 -1.87 -112.19 -5.61C-108.33 -9.35 -106.41 -14.76 -106.41 -21.83ZM-112.09 -21.65C-112.09 -10.3 -117.89 -4.63 -129.49 -4.63L-135.32 -4.63L-135.32 -38.23L-128.29 -38.23C-122.86 -38.23 -118.8 -36.83 -116.12 -34.03C-113.43 -31.23 -112.09 -27.1 -112.09 -21.65Z M-70.63 0L-65.04 0L-81.74 -43.01L-86.6 -43.01L-103.33 0L-97.88 0L-92.78 -13.27L-75.79 -13.27ZM-77.4 -18.05L-90.97 -18.05L-86.1 -31.03C-85.46 -32.96 -84.84 -35.1 -84.26 -37.44L-82.21 -31.03Z M-47.64 0L-47.64 -38.09L-34.34 -38.09L-34.34 -42.83L-66.45 -42.83L-66.45 -38.09L-53.06 -38.09L-53.06 0Z M-3.02 0L2.58 0L-14.12 -43.01L-18.98 -43.01L-35.71 0L-30.26 0L-25.17 -13.27L-8.17 -13.27ZM-9.79 -18.05L-23.35 -18.05L-18.49 -31.03C-17.84 -32.96 -17.23 -35.1 -16.64 -37.44L-14.59 -31.03Z M20.51 0L20.51 -3.11L15.47 -4.25L15.47 -38.53L20.51 -39.73L20.51 -42.83L5.04 -42.83L5.04 -39.73L10.08 -38.53L10.08 -4.25L5.04 -3.11L5.04 0Z M62.75 0L62.75 -42.83L57.71 -42.83L57.71 -18.66C57.71 -17.37 57.77 -15.29 57.89 -12.41C58.01 -9.53 58.09 -7.85 58.13 -7.38L57.89 -7.38L50.42 -19.01L36.36 -40.75L35.04 -42.83L28.8 -42.83L28.8 0L33.78 0L33.78 -23.94C33.78 -26.55 33.66 -29.64 33.43 -33.19L33.28 -35.57L33.52 -35.57L56.46 0Z M79.78 0L79.78 -18.19L97.18 -18.19L97.18 -22.91L79.78 -22.91L79.78 -38.09L98.32 -38.09L98.32 -42.83L74.38 -42.83L74.38 0Z M142.91 -21.47C142.91 -28.37 141.18 -33.76 137.72 -37.66C134.27 -41.56 129.43 -43.51 123.22 -43.51C116.84 -43.51 111.93 -41.59 108.5 -37.75C105.07 -33.91 103.36 -28.51 103.36 -21.53C103.36 -14.5 105.08 -9.06 108.53 -5.2C111.98 -1.34 116.86 0.59 123.16 0.59C129.39 0.59 134.24 -1.38 137.71 -5.3C141.18 -9.23 142.91 -14.62 142.91 -21.47ZM109.04 -21.47C109.04 -27.12 110.24 -31.41 112.65 -34.35C115.05 -37.29 118.57 -38.76 123.22 -38.76C127.81 -38.76 131.29 -37.31 133.65 -34.41C136.02 -31.51 137.2 -27.2 137.2 -21.47C137.2 -15.73 136.01 -11.4 133.62 -8.47C131.24 -5.54 127.75 -4.07 123.16 -4.07C118.55 -4.07 115.05 -5.56 112.65 -8.53C110.24 -11.49 109.04 -15.81 109.04 -21.47Z"></path></g><g id="SvgjsG1278" class="text" transform="translate(343.62, 347.25304922367206) scale(1)" light-content="false" fill="#0f0f0f"><path d="M-24.58 -11.89C-24.58 -14.69 -25.32 -17.05 -26.81 -18.97C-28.29 -20.89 -31.04 -22.81 -35.04 -24.73C-38.07 -26.17 -39.99 -27.17 -40.8 -27.73C-41.61 -28.29 -42.2 -28.86 -42.57 -29.46C-42.94 -30.05 -43.12 -30.75 -43.12 -31.55C-43.12 -32.84 -42.67 -33.89 -41.75 -34.69C-40.83 -35.49 -39.51 -35.89 -37.79 -35.89C-36.35 -35.89 -34.88 -35.7 -33.38 -35.33C-31.89 -34.96 -30 -34.31 -27.71 -33.37L-24.79 -40.43C-26.99 -41.39 -29.11 -42.13 -31.13 -42.66C-33.15 -43.18 -35.27 -43.45 -37.5 -43.45C-42.03 -43.45 -45.58 -42.36 -48.15 -40.2C-50.72 -38.03 -52 -35.05 -52 -31.26C-52 -29.25 -51.61 -27.49 -50.83 -25.99C-50.05 -24.48 -49 -23.16 -47.7 -22.03C-46.39 -20.9 -44.42 -19.72 -41.81 -18.49C-39.01 -17.16 -37.16 -16.19 -36.25 -15.59C-35.35 -14.98 -34.66 -14.35 -34.19 -13.7C-33.72 -13.04 -33.49 -12.29 -33.49 -11.46C-33.49 -9.95 -34.02 -8.82 -35.08 -8.06C-36.15 -7.29 -37.68 -6.91 -39.67 -6.91C-41.33 -6.91 -43.16 -7.18 -45.16 -7.71C-47.16 -8.23 -49.61 -9.14 -52.5 -10.43L-52.5 -1.99C-48.98 -0.27 -44.94 0.59 -40.37 0.59C-35.41 0.59 -31.54 -0.53 -28.75 -2.75C-25.97 -4.98 -24.58 -8.03 -24.58 -11.89Z M8.47 -11.89C8.47 -14.69 7.72 -17.05 6.24 -18.97C4.76 -20.89 2.01 -22.81 -1.99 -24.73C-5.02 -26.17 -6.94 -27.17 -7.75 -27.73C-8.56 -28.29 -9.15 -28.86 -9.52 -29.46C-9.89 -30.05 -10.08 -30.75 -10.08 -31.55C-10.08 -32.84 -9.62 -33.89 -8.7 -34.69C-7.78 -35.49 -6.46 -35.89 -4.75 -35.89C-3.3 -35.89 -1.83 -35.7 -0.34 -35.33C1.16 -34.96 3.05 -34.31 5.33 -33.37L8.26 -40.43C6.05 -41.39 3.94 -42.13 1.92 -42.66C-0.1 -43.18 -2.23 -43.45 -4.45 -43.45C-8.98 -43.45 -12.53 -42.36 -15.1 -40.2C-17.67 -38.03 -18.96 -35.05 -18.96 -31.26C-18.96 -29.25 -18.56 -27.49 -17.78 -25.99C-17 -24.48 -15.96 -23.16 -14.65 -22.03C-13.34 -20.9 -11.38 -19.72 -8.76 -18.49C-5.97 -17.16 -4.12 -16.19 -3.21 -15.59C-2.3 -14.98 -1.61 -14.35 -1.14 -13.7C-0.67 -13.04 -0.44 -12.29 -0.44 -11.46C-0.44 -9.95 -0.97 -8.82 -2.04 -8.06C-3.1 -7.29 -4.63 -6.91 -6.62 -6.91C-8.28 -6.91 -10.11 -7.18 -12.11 -7.71C-14.12 -8.23 -16.56 -9.14 -19.45 -10.43L-19.45 -1.99C-15.94 -0.27 -11.89 0.59 -7.32 0.59C-2.36 0.59 1.51 -0.53 4.29 -2.75C7.08 -4.98 8.47 -8.03 8.47 -11.89Z M51.77 -21.83C51.77 -28.45 49.83 -33.6 45.97 -37.29C42.1 -40.99 36.67 -42.83 29.68 -42.83L16.23 -42.83L16.23 0L28.36 0C35.94 0 41.73 -1.87 45.75 -5.62C49.76 -9.37 51.77 -14.78 51.77 -21.83ZM42.33 -21.59C42.33 -12.2 37.96 -7.5 29.21 -7.5L25.31 -7.5L25.31 -35.39L30.15 -35.39C38.27 -35.39 42.33 -30.79 42.33 -21.59Z"></path></g></g></g></svg>