<svg xmlns="http://www.w3.org/2000/svg" version="1.1" xmlns:xlink="http://www.w3.org/1999/xlink" xmlns:svgjs="http://svgjs.com/svgjs" width="1000" height="1000" overflow="visible"><g class="overview-logo-color" opacity="1"><defs id="SvgjsDefs1037"></defs><g id="SvgjsG1038" transform="scale(1.2311688311688311)" opacity="1"><g id="SvgjsG1039" class="LQxAKTb-m" transform="translate(0, 0.000017789849013856694) scale(0.6849207669205356)" light-content="false" non-strokable="false" fill="#212121"><path d="M126 73a2 2 0 0 0 0-4H98.3a2 2 0 0 0-2 1.6 33 33 0 0 1-64.68 0 2 2 0 0 0-2-1.6H2a2 2 0 0 0 0 4h26.1a37 37 0 0 0 15.1 21.56L38.13 100H2a2 2 0 0 0 0 4h37a2 2 0 0 0 1.46-.64l6.24-6.69A36.91 36.91 0 0 0 96 82.48l7.17 5.6a2 2 0 0 0 1.23.42H126a2 2 0 0 0 0-4h-20.87L98 78.94l-.12-.08a36.61 36.61 0 0 0 2-5.87z"></path><path d="M41 64a2 2 0 0 0-4 0 26.78 26.78 0 0 0 10.53 21.39A2 2 0 0 0 50 82.21 22.81 22.81 0 0 1 41 64zm23-27a2 2 0 0 0 0 4 23 23 0 0 1 0 46 22.65 22.65 0 0 1-4.82-.51 2 2 0 0 0-.85 3.91A26.68 26.68 0 0 0 64 91a27 27 0 0 0 0-54z"></path><path d="M64 81a2 2 0 0 0 0-4 13 13 0 1 1 13-13 2 2 0 0 0 4 0 17 17 0 1 0-17 17zm35.9-26a37.19 37.19 0 0 0-11.24-18.57 2 2 0 0 0-2.67 3 33.11 33.11 0 0 1 10.34 18 2 2 0 0 0 2 1.6H112a2 2 0 0 0 2-2v-6.41a7 7 0 1 0-4 .15V55z"></path><circle cx="64" cy="64" r="7"></circle><path d="M2 11h26a2 2 0 0 0 1.46-.64L35.4 4h49.05l16.17 10.67a2 2 0 0 0 1.1.33H126a2 2 0 0 0 0-4h-23.67L86.16.33A2 2 0 0 0 85.05 0H34.53a2 2 0 0 0-1.46.64L27.13 7H2a2 2 0 0 0 0 4z"></path><path d="M2 20h32a2 2 0 0 0 1.46-.64l6.53-7a2 2 0 0 0-2.92-2.73L33.13 16H2a2 2 0 0 0 0 4zm0 8h36.13l5.07 5.44A37 37 0 0 0 28.1 55H18v-9.25a7 7 0 1 0-4-.11V57a2 2 0 0 0 2 2h13.7a2 2 0 0 0 2-1.6A33.1 33.1 0 0 1 64 31a32.72 32.72 0 0 1 12.57 2.48 2 2 0 1 0 1.53-3.7 36.91 36.91 0 0 0-31.4 1.54l-6.24-6.69A2 2 0 0 0 39 24H2a2 2 0 0 0 0 4zm124-4H99.33L83.16 13.33a2 2 0 0 0-1.1-.33H58.71a7 7 0 1 0 0 4h22.74l16.18 10.67a2 2 0 0 0 1.1.33H126a2 2 0 0 0 0-4zm0 89h-24.27a2 2 0 0 0-1.1.33L84.45 124H35.4l-5.94-6.36A2 2 0 0 0 28 117H2a2 2 0 0 0 0 4h25.13l5.94 6.36a2 2 0 0 0 1.46.64h50.52a2 2 0 0 0 1.1-.33L102.33 117H126a2 2 0 0 0 0-4z"></path><path d="M2 112h31.13l5.94 6.36a2 2 0 1 0 2.93-2.72l-6.53-7A2 2 0 0 0 34 108H2a2 2 0 0 0 0 4zm124-12H98.73a2 2 0 0 0-1.1.33L81.45 111H58.71a7 7 0 1 0 0 4h23.34a2 2 0 0 0 1.1-.33L99.33 104H126a2 2 0 0 0 0-4z"></path></g><g id="SvgjsG1040" class="text" transform="translate(291.3787465250051, 39.55787837505099) scale(1)" light-content="false" fill="#1f1f1f"><path d="M-165.3 -4.89L-165.3 -28.01L-160.44 -28.01L-160.44 -4.89ZM-150.19 -8.11L-150.19 -24.83C-150.19 -25.38 -150.2 -25.96 -150.24 -26.57C-150.27 -27.19 -150.39 -27.79 -150.61 -28.39C-150.82 -28.99 -151.16 -29.56 -151.63 -30.1C-152.1 -30.64 -152.76 -31.12 -153.61 -31.53C-154.46 -31.95 -155.54 -32.28 -156.86 -32.52C-158.17 -32.77 -159.79 -32.9 -161.71 -32.9L-175.55 -32.9L-175.55 0L-161.71 0C-159.79 0 -158.17 -0.12 -156.86 -0.37C-155.54 -0.62 -154.46 -0.95 -153.61 -1.37C-152.76 -1.79 -152.1 -2.27 -151.63 -2.82C-151.16 -3.36 -150.82 -3.93 -150.61 -4.54C-150.39 -5.14 -150.27 -5.75 -150.24 -6.36C-150.2 -6.97 -150.19 -7.56 -150.19 -8.11Z M-131.85 -8.11L-126.53 -8.11L-125.73 0L-115.06 0L-120.34 -32.9L-138.04 -32.9L-143.32 0L-132.7 0ZM-131.31 -11.8L-129.21 -28.07L-127.07 -11.8Z M-85.16 -32.9L-109.64 -32.9L-109.64 -28.01L-102.54 -28.01L-102.54 0L-92.29 0L-92.29 -28.01L-85.16 -28.01Z M-68.86 -8.11L-63.54 -8.11L-62.74 0L-52.08 0L-57.36 -32.9L-75.05 -32.9L-80.33 0L-69.71 0ZM-68.33 -11.8L-66.22 -28.07L-64.08 -11.8Z M-34.94 -32.9L-45.19 -32.9L-45.19 0L-34.94 0Z M-10.81 0L-1.24 0L-1.24 -32.9L-9.47 -32.9L-9.47 -17.2L-17.88 -32.9L-27.24 -32.9L-27.24 0L-18.75 0L-18.75 -14.66Z M25.29 -32.9L8.66 -32.9L8.66 0L18.91 0L18.91 -14.54L24.85 -14.54L24.85 -19.68L18.91 -19.68L18.91 -28.01L25.29 -28.01Z M42.8 -4.89L42.8 -28.01L47.66 -28.01L47.66 -4.89ZM45.08 0.8C47.11 0.8 48.83 0.67 50.25 0.4C51.67 0.13 52.86 -0.22 53.81 -0.66C54.76 -1.1 55.51 -1.61 56.06 -2.19C56.61 -2.76 57.02 -3.37 57.29 -3.99C57.57 -4.62 57.74 -5.25 57.81 -5.88C57.88 -6.51 57.91 -7.1 57.91 -7.65L57.91 -25.31C57.91 -25.86 57.88 -26.44 57.81 -27.07C57.74 -27.69 57.57 -28.32 57.29 -28.94C57.02 -29.55 56.61 -30.15 56.06 -30.72C55.51 -31.29 54.76 -31.79 53.81 -32.23C52.86 -32.66 51.67 -33.01 50.25 -33.27C48.83 -33.53 47.11 -33.66 45.08 -33.66C43.08 -33.66 41.38 -33.53 39.98 -33.27C38.58 -33.01 37.42 -32.66 36.49 -32.23C35.57 -31.79 34.84 -31.29 34.31 -30.72C33.78 -30.15 33.38 -29.55 33.12 -28.94C32.86 -28.32 32.7 -27.69 32.64 -27.07C32.58 -26.44 32.54 -25.86 32.54 -25.31L32.54 -7.65C32.54 -7.1 32.58 -6.51 32.64 -5.88C32.7 -5.25 32.86 -4.62 33.12 -3.99C33.38 -3.37 33.78 -2.76 34.31 -2.19C34.84 -1.61 35.57 -1.1 36.49 -0.66C37.42 -0.22 38.59 0.13 39.99 0.4C41.39 0.67 43.09 0.8 45.08 0.8Z M89.8 -23.26L89.8 -28.01L94.67 -28.01L94.67 -23.88L104.92 -23.88C104.92 -25.7 104.74 -27.23 104.38 -28.48C104.02 -29.73 103.38 -30.74 102.44 -31.51C101.51 -32.28 100.23 -32.83 98.61 -33.16C97 -33.49 94.94 -33.66 92.44 -33.66C90.69 -33.66 89.16 -33.58 87.85 -33.41C86.54 -33.25 85.4 -32.98 84.45 -32.61C83.49 -32.24 82.7 -31.75 82.06 -31.15C81.43 -30.55 80.93 -29.82 80.56 -28.96C80.19 -28.09 79.93 -27.08 79.77 -25.91C79.62 -24.75 79.55 -23.43 79.55 -21.94C79.55 -20.75 79.76 -19.72 80.2 -18.86C80.63 -18 81.2 -17.27 81.91 -16.65C82.62 -16.04 83.42 -15.53 84.33 -15.12C85.24 -14.71 86.16 -14.35 87.11 -14.07C88.05 -13.78 88.97 -13.53 89.88 -13.32C90.79 -13.12 91.6 -12.91 92.3 -12.69C93.01 -12.48 93.58 -12.24 94.02 -11.98C94.45 -11.72 94.67 -11.39 94.67 -10.99L94.67 -4.89L89.8 -4.89L89.8 -10.23L79.07 -10.23C79.07 -8.95 79.14 -7.79 79.28 -6.74C79.42 -5.7 79.67 -4.77 80.03 -3.96C80.4 -3.15 80.89 -2.44 81.52 -1.85C82.14 -1.25 82.94 -0.76 83.92 -0.37C84.9 0.01 86.07 0.3 87.44 0.48C88.8 0.67 90.4 0.76 92.23 0.76C94.29 0.76 96.04 0.63 97.47 0.37C98.9 0.11 100.09 -0.26 101.03 -0.75C101.97 -1.24 102.7 -1.83 103.22 -2.52C103.75 -3.2 104.13 -3.97 104.38 -4.82C104.63 -5.66 104.78 -6.58 104.83 -7.57C104.89 -8.56 104.92 -9.6 104.92 -10.68C104.92 -12.2 104.7 -13.49 104.27 -14.56C103.83 -15.63 103.26 -16.54 102.55 -17.27C101.85 -18.01 101.04 -18.61 100.13 -19.07C99.22 -19.53 98.3 -19.91 97.36 -20.2C96.41 -20.5 95.49 -20.74 94.58 -20.93C93.68 -21.13 92.87 -21.32 92.16 -21.52C91.45 -21.72 90.88 -21.95 90.45 -22.21C90.01 -22.47 89.8 -22.82 89.8 -23.26Z M122.49 -23.26L122.49 -28.01L127.35 -28.01L127.35 -23.88L137.6 -23.88C137.6 -25.7 137.43 -27.23 137.07 -28.48C136.71 -29.73 136.06 -30.74 135.13 -31.51C134.19 -32.28 132.92 -32.83 131.3 -33.16C129.69 -33.49 127.63 -33.66 125.13 -33.66C123.38 -33.66 121.85 -33.58 120.54 -33.41C119.22 -33.25 118.09 -32.98 117.14 -32.61C116.18 -32.24 115.39 -31.75 114.75 -31.15C114.12 -30.55 113.62 -29.82 113.25 -28.96C112.88 -28.09 112.61 -27.08 112.46 -25.91C112.31 -24.75 112.24 -23.43 112.24 -21.94C112.24 -20.75 112.45 -19.72 112.89 -18.86C113.32 -18 113.89 -17.27 114.6 -16.65C115.31 -16.04 116.11 -15.53 117.02 -15.12C117.93 -14.71 118.85 -14.35 119.8 -14.07C120.74 -13.78 121.66 -13.53 122.57 -13.32C123.48 -13.12 124.28 -12.91 124.99 -12.69C125.7 -12.48 126.27 -12.24 126.7 -11.98C127.14 -11.72 127.35 -11.39 127.35 -10.99L127.35 -4.89L122.49 -4.89L122.49 -10.23L111.76 -10.23C111.76 -8.95 111.83 -7.79 111.97 -6.74C112.11 -5.7 112.36 -4.77 112.72 -3.96C113.09 -3.15 113.58 -2.44 114.21 -1.85C114.83 -1.25 115.63 -0.76 116.61 -0.37C117.59 0.01 118.76 0.3 120.13 0.48C121.49 0.67 123.09 0.76 124.92 0.76C126.98 0.76 128.73 0.63 130.16 0.37C131.59 0.11 132.78 -0.26 133.72 -0.75C134.66 -1.24 135.39 -1.83 135.91 -2.52C136.44 -3.2 136.82 -3.97 137.07 -4.82C137.32 -5.66 137.47 -6.58 137.52 -7.57C137.58 -8.56 137.6 -9.6 137.6 -10.68C137.6 -12.2 137.39 -13.49 136.95 -14.56C136.52 -15.63 135.95 -16.54 135.24 -17.27C134.53 -18.01 133.73 -18.61 132.82 -19.07C131.91 -19.53 130.99 -19.91 130.05 -20.2C129.1 -20.5 128.18 -20.74 127.27 -20.93C126.36 -21.13 125.56 -21.32 124.85 -21.52C124.14 -21.72 123.57 -21.95 123.14 -22.21C122.7 -22.47 122.49 -22.82 122.49 -23.26Z M155.51 -4.89L155.51 -28.01L160.37 -28.01L160.37 -4.89ZM170.62 -8.11L170.62 -24.83C170.62 -25.38 170.61 -25.96 170.57 -26.57C170.54 -27.19 170.41 -27.79 170.2 -28.39C169.99 -28.99 169.65 -29.56 169.18 -30.1C168.71 -30.64 168.05 -31.12 167.2 -31.53C166.35 -31.95 165.27 -32.28 163.95 -32.52C162.64 -32.77 161.02 -32.9 159.09 -32.9L145.26 -32.9L145.26 0L159.09 0C161.02 0 162.64 -0.12 163.95 -0.37C165.27 -0.62 166.35 -0.95 167.2 -1.37C168.05 -1.79 168.71 -2.27 169.18 -2.82C169.65 -3.36 169.99 -3.93 170.2 -4.54C170.41 -5.14 170.54 -5.75 170.57 -6.36C170.61 -6.97 170.62 -7.56 170.62 -8.11Z"></path></g><g id="SvgjsG1041" class="text" transform="translate(289.30873920078636, 81.37058895688745) scale(1)" light-content="false" fill="#212121"><path d="M-168.36 -16.45L-173.48 -16.45L-173.48 0L-168.36 0Z M-158.2 0L-153.08 0L-153.08 -10.93L-150.64 -10.93L-150.64 0L-145.52 0L-145.52 -9.98C-145.52 -10.64 -145.63 -11.21 -145.85 -11.69C-146.08 -12.18 -146.37 -12.59 -146.74 -12.91C-147.11 -13.23 -147.53 -13.46 -148 -13.62C-148.47 -13.78 -148.95 -13.86 -149.44 -13.86C-149.86 -13.86 -150.27 -13.81 -150.67 -13.72C-151.08 -13.63 -151.46 -13.49 -151.82 -13.31C-152.18 -13.13 -152.5 -12.9 -152.79 -12.63C-153.08 -12.36 -153.31 -12.04 -153.49 -11.68L-153.96 -13.41L-158.2 -13.41Z M-134.87 -13.41L-136.8 -13.41L-136.8 -11.32L-134.87 -11.32L-134.87 0L-129.75 0L-129.75 -11.32L-126.82 -11.32L-126.82 -13.41L-129.75 -13.41L-129.75 -15.23L-126.9 -15.23L-126.9 -17.36C-127.51 -17.52 -128.09 -17.65 -128.66 -17.74C-129.23 -17.83 -129.77 -17.88 -130.29 -17.88C-130.96 -17.88 -131.57 -17.8 -132.13 -17.64C-132.69 -17.48 -133.18 -17.22 -133.58 -16.86C-133.99 -16.5 -134.3 -16.04 -134.53 -15.47C-134.76 -14.91 -134.87 -14.22 -134.87 -13.41Z M-112.43 -2.44L-112.43 -10.93L-109.99 -10.93L-109.99 -2.44ZM-111.15 0.4C-110.12 0.4 -109.26 0.34 -108.54 0.22C-107.83 0.09 -107.24 -0.07 -106.78 -0.28C-106.32 -0.48 -105.96 -0.73 -105.7 -1C-105.44 -1.28 -105.25 -1.56 -105.13 -1.86C-105 -2.15 -104.93 -2.45 -104.9 -2.76C-104.88 -3.06 -104.87 -3.35 -104.87 -3.63L-104.87 -9.82C-104.87 -10.09 -104.88 -10.38 -104.9 -10.69C-104.93 -10.99 -105 -11.3 -105.13 -11.6C-105.25 -11.89 -105.44 -12.18 -105.7 -12.45C-105.96 -12.72 -106.32 -12.96 -106.78 -13.17C-107.24 -13.37 -107.83 -13.54 -108.54 -13.66C-109.26 -13.79 -110.12 -13.85 -111.15 -13.85C-112.18 -13.85 -113.05 -13.79 -113.77 -13.66C-114.49 -13.54 -115.09 -13.37 -115.56 -13.17C-116.04 -12.96 -116.41 -12.72 -116.67 -12.45C-116.93 -12.18 -117.13 -11.89 -117.26 -11.6C-117.39 -11.3 -117.47 -10.99 -117.51 -10.69C-117.54 -10.38 -117.55 -10.09 -117.55 -9.82L-117.55 -3.63C-117.55 -3.35 -117.54 -3.06 -117.51 -2.76C-117.47 -2.45 -117.39 -2.15 -117.26 -1.86C-117.13 -1.56 -116.93 -1.28 -116.67 -1C-116.41 -0.73 -116.04 -0.48 -115.56 -0.28C-115.09 -0.07 -114.49 0.09 -113.77 0.22C-113.05 0.34 -112.18 0.4 -111.15 0.4Z M-95.55 0L-90.43 0L-90.43 -8.96L-87.56 -9.79L-87.56 -13.85C-87.72 -13.84 -87.9 -13.82 -88.11 -13.79C-88.31 -13.76 -88.52 -13.71 -88.74 -13.64C-88.96 -13.57 -89.18 -13.47 -89.4 -13.34C-89.62 -13.22 -89.83 -13.06 -90.02 -12.87C-90.21 -12.69 -90.37 -12.46 -90.52 -12.2C-90.66 -11.94 -90.77 -11.64 -90.84 -11.29L-91.42 -13.41L-95.55 -13.41Z M-78.62 0L-73.7 0L-73.7 -10.93L-71.27 -10.93L-71.27 0L-66.35 0L-66.35 -10.71L-66.35 -10.82C-66.35 -10.86 -66.36 -10.9 -66.36 -10.93L-63.92 -10.93L-63.92 0L-59 0L-59 -9.98C-59 -10.64 -59.11 -11.2 -59.32 -11.69C-59.54 -12.17 -59.83 -12.58 -60.19 -12.9C-60.54 -13.22 -60.95 -13.46 -61.41 -13.62C-61.86 -13.78 -62.33 -13.86 -62.8 -13.86C-63.2 -13.86 -63.59 -13.82 -63.98 -13.74C-64.37 -13.65 -64.74 -13.53 -65.09 -13.37C-65.44 -13.21 -65.77 -13.01 -66.06 -12.77C-66.35 -12.53 -66.59 -12.25 -66.78 -11.93C-66.95 -12.25 -67.15 -12.54 -67.39 -12.78C-67.63 -13.02 -67.9 -13.22 -68.19 -13.38C-68.48 -13.54 -68.78 -13.66 -69.11 -13.74C-69.44 -13.82 -69.77 -13.86 -70.11 -13.86C-70.5 -13.86 -70.9 -13.81 -71.31 -13.72C-71.71 -13.63 -72.09 -13.49 -72.45 -13.31C-72.8 -13.13 -73.13 -12.9 -73.42 -12.63C-73.7 -12.36 -73.94 -12.04 -74.12 -11.68L-74.59 -13.41L-78.62 -13.41Z M-41 0L-36.3 0C-36.38 -0.27 -36.45 -0.55 -36.52 -0.85C-36.58 -1.1 -36.63 -1.38 -36.67 -1.69C-36.72 -2 -36.74 -2.32 -36.74 -2.65L-36.74 -9.82C-36.74 -10.09 -36.76 -10.38 -36.79 -10.69C-36.82 -10.99 -36.9 -11.3 -37.03 -11.6C-37.16 -11.89 -37.36 -12.18 -37.62 -12.45C-37.88 -12.72 -38.24 -12.96 -38.7 -13.17C-39.16 -13.37 -39.74 -13.54 -40.43 -13.66C-41.13 -13.79 -41.97 -13.85 -42.97 -13.85C-44.08 -13.85 -44.99 -13.77 -45.72 -13.6C-46.44 -13.44 -47.02 -13.21 -47.45 -12.93C-47.88 -12.65 -48.18 -12.32 -48.36 -11.95C-48.53 -11.57 -48.62 -11.18 -48.62 -10.77C-48.62 -10.53 -48.6 -10.27 -48.55 -10.01C-48.5 -9.75 -48.44 -9.49 -48.36 -9.22L-44.3 -9.21L-44.3 -10.93L-41.87 -10.93L-41.87 -8.06C-42.27 -8.11 -42.68 -8.15 -43.08 -8.17C-43.49 -8.19 -43.87 -8.2 -44.22 -8.2C-45.23 -8.2 -46.08 -8.07 -46.75 -7.82C-47.42 -7.56 -47.95 -7.23 -48.35 -6.81C-48.74 -6.4 -49.02 -5.92 -49.18 -5.4C-49.34 -4.87 -49.42 -4.34 -49.42 -3.79C-49.42 -3.27 -49.36 -2.75 -49.22 -2.25C-49.09 -1.75 -48.86 -1.31 -48.54 -0.92C-48.22 -0.53 -47.8 -0.22 -47.26 0.02C-46.73 0.25 -46.07 0.37 -45.28 0.37C-44.9 0.37 -44.52 0.33 -44.14 0.24C-43.76 0.16 -43.4 0.03 -43.06 -0.15C-42.72 -0.32 -42.42 -0.54 -42.14 -0.8C-41.87 -1.07 -41.64 -1.37 -41.46 -1.72ZM-44.3 -6.21L-41.87 -6.21L-41.87 -2.44L-44.3 -2.44Z M-14.73 -4.65L-19.85 -4.65L-19.85 -2.44L-22.29 -2.44L-22.29 -10.93L-19.85 -10.93L-19.85 -8.82L-14.73 -8.82L-14.73 -10.09C-14.73 -10.35 -14.75 -10.63 -14.78 -10.92C-14.81 -11.21 -14.9 -11.49 -15.04 -11.78C-15.18 -12.06 -15.38 -12.32 -15.66 -12.57C-15.93 -12.82 -16.3 -13.04 -16.78 -13.23C-17.25 -13.42 -17.83 -13.57 -18.54 -13.68C-19.24 -13.79 -20.1 -13.85 -21.1 -13.85C-22.13 -13.85 -23 -13.79 -23.72 -13.66C-24.43 -13.54 -25.02 -13.37 -25.48 -13.17C-25.95 -12.96 -26.32 -12.72 -26.58 -12.45C-26.84 -12.18 -27.03 -11.9 -27.15 -11.6C-27.28 -11.31 -27.35 -11.01 -27.38 -10.7C-27.4 -10.4 -27.41 -10.11 -27.41 -9.84L-27.41 -3.65C-27.41 -3.38 -27.4 -3.09 -27.38 -2.78C-27.35 -2.47 -27.28 -2.17 -27.15 -1.88C-27.03 -1.58 -26.84 -1.3 -26.58 -1.02C-26.32 -0.75 -25.95 -0.51 -25.48 -0.3C-25.02 -0.09 -24.43 0.07 -23.72 0.2C-23 0.32 -22.13 0.38 -21.1 0.38C-20.04 0.38 -19.15 0.32 -18.42 0.2C-17.69 0.07 -17.09 -0.09 -16.62 -0.3C-16.15 -0.51 -15.79 -0.75 -15.53 -1.03C-15.27 -1.3 -15.08 -1.58 -14.97 -1.88C-14.85 -2.18 -14.78 -2.48 -14.76 -2.79C-14.74 -3.1 -14.73 -3.38 -14.73 -3.65Z M-0.37 0L-0.37 -13.41L-5.49 -13.41L-5.49 0ZM-0.37 -17.63L-5.49 -17.63L-5.49 -15.19L-0.37 -15.19Z M13.95 -2.44L13.95 -10.93L16.38 -10.93L16.38 -2.44ZM15.23 0.4C16.25 0.4 17.12 0.34 17.83 0.22C18.54 0.09 19.13 -0.07 19.6 -0.28C20.06 -0.48 20.42 -0.73 20.68 -1C20.94 -1.28 21.13 -1.56 21.25 -1.86C21.37 -2.15 21.45 -2.45 21.47 -2.76C21.5 -3.06 21.51 -3.35 21.51 -3.63L21.51 -9.82C21.51 -10.09 21.5 -10.38 21.47 -10.69C21.45 -10.99 21.37 -11.3 21.25 -11.6C21.13 -11.89 20.94 -12.18 20.68 -12.45C20.42 -12.72 20.06 -12.96 19.6 -13.17C19.13 -13.37 18.54 -13.54 17.83 -13.66C17.12 -13.79 16.25 -13.85 15.23 -13.85C14.2 -13.85 13.32 -13.79 12.6 -13.66C11.89 -13.54 11.29 -13.37 10.81 -13.17C10.34 -12.96 9.97 -12.72 9.71 -12.45C9.44 -12.18 9.24 -11.89 9.11 -11.6C8.98 -11.3 8.9 -10.99 8.87 -10.69C8.84 -10.38 8.82 -10.09 8.82 -9.82L8.82 -3.63C8.82 -3.35 8.84 -3.06 8.87 -2.76C8.9 -2.45 8.98 -2.15 9.11 -1.86C9.24 -1.56 9.44 -1.28 9.71 -1C9.97 -0.73 10.34 -0.48 10.81 -0.28C11.29 -0.07 11.89 0.09 12.6 0.22C13.32 0.34 14.2 0.4 15.23 0.4ZM21 -17.11L18.84 -22.71L11.76 -16.9L12.49 -14.79Z M30.83 0L35.95 0L35.95 -10.93L38.38 -10.93L38.38 0L43.51 0L43.51 -9.98C43.51 -10.64 43.4 -11.21 43.17 -11.69C42.95 -12.18 42.66 -12.59 42.29 -12.91C41.92 -13.23 41.5 -13.46 41.03 -13.62C40.56 -13.78 40.08 -13.86 39.59 -13.86C39.17 -13.86 38.76 -13.81 38.35 -13.72C37.95 -13.63 37.57 -13.49 37.21 -13.31C36.85 -13.13 36.53 -12.9 36.24 -12.63C35.95 -12.36 35.72 -12.04 35.54 -11.68L35.06 -13.41L30.83 -13.41Z M73.09 -4.58L73.09 -2.44L70.65 -2.44L70.65 -3.9L65.84 -4.26L65.84 -3.45C65.84 -3.08 65.86 -2.73 65.9 -2.4C65.95 -2.07 66.04 -1.77 66.18 -1.5C66.31 -1.22 66.51 -0.97 66.77 -0.75C67.04 -0.52 67.39 -0.33 67.83 -0.18C68.27 -0.02 68.81 0.11 69.45 0.2C70.09 0.29 70.86 0.35 71.76 0.37C73.08 0.37 74.16 0.27 75 0.07C75.84 -0.13 76.5 -0.42 76.97 -0.82C77.45 -1.22 77.77 -1.71 77.95 -2.29C78.12 -2.88 78.21 -3.56 78.21 -4.34C78.21 -4.91 78.11 -5.4 77.91 -5.82C77.7 -6.24 77.43 -6.6 77.1 -6.9C76.76 -7.2 76.38 -7.45 75.95 -7.65C75.52 -7.85 75.07 -8.02 74.62 -8.15C74.16 -8.28 73.71 -8.38 73.26 -8.46C72.81 -8.53 72.41 -8.6 72.04 -8.65C71.68 -8.7 71.37 -8.74 71.12 -8.79C70.87 -8.83 70.71 -8.88 70.65 -8.94L70.65 -10.93L73.09 -10.93L73.09 -9.48L77.93 -9.17L77.93 -10.05C77.93 -10.43 77.91 -10.79 77.88 -11.12C77.84 -11.46 77.75 -11.76 77.62 -12.03C77.48 -12.31 77.29 -12.56 77.03 -12.78C76.77 -13 76.42 -13.18 75.99 -13.33C75.55 -13.48 75.01 -13.61 74.36 -13.69C73.72 -13.78 72.94 -13.84 72.02 -13.85C71.11 -13.85 70.31 -13.8 69.64 -13.69C68.97 -13.59 68.39 -13.45 67.91 -13.26C67.43 -13.07 67.03 -12.84 66.72 -12.57C66.41 -12.29 66.17 -11.99 66 -11.65C65.82 -11.32 65.7 -10.95 65.63 -10.55C65.56 -10.16 65.53 -9.74 65.53 -9.3C65.53 -8.7 65.63 -8.17 65.83 -7.73C66.03 -7.29 66.3 -6.92 66.64 -6.6C66.98 -6.28 67.36 -6.02 67.8 -5.82C68.23 -5.61 68.68 -5.44 69.14 -5.31C69.6 -5.18 70.05 -5.08 70.5 -5.01C70.94 -4.94 71.35 -4.89 71.71 -4.84C72.08 -4.8 72.38 -4.76 72.63 -4.72C72.88 -4.69 73.03 -4.64 73.09 -4.58Z M92.13 -2.44L92.13 -10.93L94.56 -10.93L94.56 -2.44ZM93.41 0.4C94.43 0.4 95.3 0.34 96.01 0.22C96.72 0.09 97.31 -0.07 97.77 -0.28C98.24 -0.48 98.6 -0.73 98.86 -1C99.11 -1.28 99.3 -1.56 99.43 -1.86C99.55 -2.15 99.63 -2.45 99.65 -2.76C99.67 -3.06 99.69 -3.35 99.69 -3.63L99.69 -9.82C99.69 -10.09 99.67 -10.38 99.65 -10.69C99.63 -10.99 99.55 -11.3 99.43 -11.6C99.3 -11.89 99.11 -12.18 98.86 -12.45C98.6 -12.72 98.24 -12.96 97.77 -13.17C97.31 -13.37 96.72 -13.54 96.01 -13.66C95.3 -13.79 94.43 -13.85 93.41 -13.85C92.37 -13.85 91.5 -13.79 90.78 -13.66C90.06 -13.54 89.47 -13.37 88.99 -13.17C88.52 -12.96 88.15 -12.72 87.88 -12.45C87.62 -12.18 87.42 -11.89 87.29 -11.6C87.16 -11.3 87.08 -10.99 87.05 -10.69C87.02 -10.38 87 -10.09 87 -9.82L87 -3.63C87 -3.35 87.02 -3.06 87.05 -2.76C87.08 -2.45 87.16 -2.15 87.29 -1.86C87.42 -1.56 87.62 -1.28 87.88 -1C88.15 -0.73 88.52 -0.48 88.99 -0.28C89.47 -0.07 90.06 0.09 90.78 0.22C91.5 0.34 92.37 0.4 93.41 0.4Z M114.13 0L114.13 -17.63L109 -17.63L109 0Z M128.64 0L128.64 -13.41L123.52 -13.41L123.52 0ZM128.64 -17.63L123.52 -17.63L123.52 -15.19L128.64 -15.19Z M150.54 -17.63L145.42 -17.63L145.42 -12.36C144.98 -12.85 144.43 -13.22 143.79 -13.48C143.15 -13.73 142.46 -13.86 141.72 -13.86C141.24 -13.86 140.76 -13.78 140.3 -13.62C139.83 -13.46 139.42 -13.22 139.06 -12.89C138.7 -12.56 138.41 -12.14 138.19 -11.64C137.97 -11.13 137.86 -10.54 137.86 -9.85L137.86 -3.89C137.86 -3.17 137.97 -2.54 138.19 -2C138.42 -1.46 138.71 -1.02 139.08 -0.67C139.45 -0.31 139.87 -0.05 140.34 0.12C140.82 0.3 141.3 0.38 141.8 0.38C142.21 0.38 142.61 0.34 143 0.25C143.39 0.16 143.77 0.03 144.12 -0.15C144.47 -0.32 144.79 -0.54 145.08 -0.81C145.37 -1.07 145.62 -1.38 145.83 -1.72L146.3 0L150.54 0ZM145.42 -10.93L145.42 -2.44L142.98 -2.44L142.98 -10.93Z M167.98 0L172.69 0C172.6 -0.27 172.53 -0.55 172.46 -0.85C172.4 -1.1 172.36 -1.38 172.31 -1.69C172.27 -2 172.24 -2.32 172.24 -2.65L172.24 -9.82C172.24 -10.09 172.23 -10.38 172.2 -10.69C172.17 -10.99 172.08 -11.3 171.95 -11.6C171.82 -11.89 171.63 -12.18 171.37 -12.45C171.11 -12.72 170.74 -12.96 170.28 -13.17C169.82 -13.37 169.25 -13.54 168.55 -13.66C167.86 -13.79 167.01 -13.85 166.01 -13.85C164.91 -13.85 163.99 -13.77 163.27 -13.6C162.54 -13.44 161.96 -13.21 161.53 -12.93C161.1 -12.65 160.8 -12.32 160.63 -11.95C160.45 -11.57 160.36 -11.18 160.36 -10.77C160.36 -10.53 160.39 -10.27 160.44 -10.01C160.48 -9.75 160.55 -9.49 160.62 -9.22L164.68 -9.21L164.68 -10.93L167.12 -10.93L167.12 -8.06C166.71 -8.11 166.31 -8.15 165.9 -8.17C165.5 -8.19 165.12 -8.2 164.77 -8.2C163.75 -8.2 162.91 -8.07 162.24 -7.82C161.56 -7.56 161.03 -7.23 160.64 -6.81C160.24 -6.4 159.96 -5.92 159.8 -5.4C159.64 -4.87 159.56 -4.34 159.56 -3.79C159.56 -3.27 159.63 -2.75 159.76 -2.25C159.89 -1.75 160.12 -1.31 160.44 -0.92C160.76 -0.53 161.19 -0.22 161.72 0.02C162.25 0.25 162.91 0.37 163.7 0.37C164.08 0.37 164.46 0.33 164.84 0.24C165.23 0.16 165.58 0.03 165.92 -0.15C166.26 -0.32 166.56 -0.54 166.84 -0.8C167.11 -1.07 167.34 -1.37 167.52 -1.72ZM164.68 -6.21L167.12 -6.21L167.12 -2.44L164.68 -2.44Z"></path></g></g></g></svg>