<svg xmlns="http://www.w3.org/2000/svg" version="1.1" xmlns:xlink="http://www.w3.org/1999/xlink" xmlns:svgjs="http://svgjs.com/svgjs" width="1000" height="1000" overflow="visible"><g class="overview-logo-monotone" opacity="1"><defs id="SvgjsDefs1036"><linearGradient id="SvgjsLinearGradientREl5X24vCX" gradientUnits="userSpaceOnUse" x1="64" y1="127.99999286169441" x2="64" y2="-0.000022397094653570093"><stop id="SvgjsStop1039" stop-color="#5b75b6" offset="0.218"></stop><stop id="SvgjsStop1040" stop-color="#4a4a4a" offset="0.845"></stop></linearGradient></defs><g id="SvgjsG1037" transform="scale(0.9893331843604318)" opacity="1"><g id="SvgjsG1041" class="6zngJAtBA" transform="translate(19.065124485550626, 0.00006087559270117116) scale(2.343749942547949)" light-content="false" non-strokable="false" fill="#ffffff"><path d="M126 73a2 2 0 0 0 0-4H98.3a2 2 0 0 0-2 1.6 33 33 0 0 1-64.68 0 2 2 0 0 0-2-1.6H2a2 2 0 0 0 0 4h26.1a37 37 0 0 0 15.1 21.56L38.13 100H2a2 2 0 0 0 0 4h37a2 2 0 0 0 1.46-.64l6.24-6.69A36.91 36.91 0 0 0 96 82.48l7.17 5.6a2 2 0 0 0 1.23.42H126a2 2 0 0 0 0-4h-20.87L98 78.94l-.12-.08a36.61 36.61 0 0 0 2-5.87z"></path><path d="M41 64a2 2 0 0 0-4 0 26.78 26.78 0 0 0 10.53 21.39A2 2 0 0 0 50 82.21 22.81 22.81 0 0 1 41 64zm23-27a2 2 0 0 0 0 4 23 23 0 0 1 0 46 22.65 22.65 0 0 1-4.82-.51 2 2 0 0 0-.85 3.91A26.68 26.68 0 0 0 64 91a27 27 0 0 0 0-54z"></path><path d="M64 81a2 2 0 0 0 0-4 13 13 0 1 1 13-13 2 2 0 0 0 4 0 17 17 0 1 0-17 17zm35.9-26a37.19 37.19 0 0 0-11.24-18.57 2 2 0 0 0-2.67 3 33.11 33.11 0 0 1 10.34 18 2 2 0 0 0 2 1.6H112a2 2 0 0 0 2-2v-6.41a7 7 0 1 0-4 .15V55z"></path><circle cx="64" cy="64" r="7"></circle><path d="M2 11h26a2 2 0 0 0 1.46-.64L35.4 4h49.05l16.17 10.67a2 2 0 0 0 1.1.33H126a2 2 0 0 0 0-4h-23.67L86.16.33A2 2 0 0 0 85.05 0H34.53a2 2 0 0 0-1.46.64L27.13 7H2a2 2 0 0 0 0 4z"></path><path d="M2 20h32a2 2 0 0 0 1.46-.64l6.53-7a2 2 0 0 0-2.92-2.73L33.13 16H2a2 2 0 0 0 0 4zm0 8h36.13l5.07 5.44A37 37 0 0 0 28.1 55H18v-9.25a7 7 0 1 0-4-.11V57a2 2 0 0 0 2 2h13.7a2 2 0 0 0 2-1.6A33.1 33.1 0 0 1 64 31a32.72 32.72 0 0 1 12.57 2.48 2 2 0 1 0 1.53-3.7 36.91 36.91 0 0 0-31.4 1.54l-6.24-6.69A2 2 0 0 0 39 24H2a2 2 0 0 0 0 4zm124-4H99.33L83.16 13.33a2 2 0 0 0-1.1-.33H58.71a7 7 0 1 0 0 4h22.74l16.18 10.67a2 2 0 0 0 1.1.33H126a2 2 0 0 0 0-4zm0 89h-24.27a2 2 0 0 0-1.1.33L84.45 124H35.4l-5.94-6.36A2 2 0 0 0 28 117H2a2 2 0 0 0 0 4h25.13l5.94 6.36a2 2 0 0 0 1.46.64h50.52a2 2 0 0 0 1.1-.33L102.33 117H126a2 2 0 0 0 0-4z"></path><path d="M2 112h31.13l5.94 6.36a2 2 0 1 0 2.93-2.72l-6.53-7A2 2 0 0 0 34 108H2a2 2 0 0 0 0 4zm124-12H98.73a2 2 0 0 0-1.1.33L81.45 111H58.71a7 7 0 1 0 0 4h23.34a2 2 0 0 0 1.1-.33L99.33 104H126a2 2 0 0 0 0-4z"></path></g><g id="SvgjsG1042" class="text" transform="translate(168.9199981689453, 172.03657120843556) scale(1)" stroke="#ffffff" stroke-width="2.9551371877309545px" light-content="false" fill="#29292E"><path d="M-168.92 -0.24C-165.43 0.19 -161.76 0.41 -157.92 0.41C-152.53 0.41 -148.07 -0.3 -144.56 -1.72C-141.05 -3.15 -138.41 -5.37 -136.66 -8.39C-134.9 -11.42 -134.02 -15.32 -134.02 -20.1C-134.02 -27.07 -135.87 -32.23 -139.56 -35.59C-143.26 -38.95 -148.79 -40.63 -156.16 -40.63C-158.28 -40.63 -160.46 -40.51 -162.72 -40.28C-164.97 -40.04 -167.04 -39.72 -168.92 -39.3ZM-148.58 -8.12C-150.41 -7.23 -152.75 -6.79 -155.62 -6.79C-157.43 -6.79 -158.91 -6.85 -160.07 -6.98L-160.07 -33.08C-158.49 -33.35 -156.99 -33.49 -155.56 -33.49C-152.75 -33.49 -150.44 -33.04 -148.61 -32.13C-146.78 -31.23 -145.41 -29.79 -144.49 -27.83C-143.58 -25.86 -143.12 -23.29 -143.12 -20.13C-143.12 -16.92 -143.57 -14.34 -144.48 -12.39C-145.39 -10.43 -146.75 -9.01 -148.58 -8.12Z M-110.48 -28.98C-112.47 -29.78 -115.08 -30.18 -118.32 -30.18C-119.88 -30.18 -121.52 -30.07 -123.24 -29.85C-124.96 -29.63 -126.53 -29.32 -127.94 -28.93L-127.94 -22.41C-126.65 -22.81 -125.29 -23.1 -123.85 -23.3C-122.41 -23.5 -121.09 -23.6 -119.87 -23.6C-118.19 -23.6 -116.86 -23.43 -115.89 -23.1C-114.92 -22.76 -114.22 -22.21 -113.78 -21.43C-113.33 -20.65 -113.11 -19.57 -113.11 -18.2L-113.11 -17.82L-117.94 -17.41C-122.22 -17.14 -125.35 -16.22 -127.33 -14.67C-129.31 -13.11 -130.3 -10.91 -130.3 -8.07C-130.3 -6.35 -129.92 -4.84 -129.15 -3.54C-128.38 -2.25 -127.27 -1.24 -125.82 -0.53C-124.37 0.19 -122.65 0.54 -120.66 0.54C-118.99 0.54 -117.48 0.26 -116.12 -0.31C-114.77 -0.88 -113.65 -1.76 -112.78 -2.93L-112.38 -2.93L-111.78 0L-104.61 0L-104.61 -17.65C-104.61 -20.77 -105.09 -23.24 -106.05 -25.06C-107.01 -26.88 -108.48 -28.18 -110.48 -28.98ZM-115.31 -5.93C-116.12 -5.64 -116.96 -5.49 -117.81 -5.49C-119.09 -5.49 -120.07 -5.78 -120.74 -6.36C-121.41 -6.93 -121.75 -7.78 -121.75 -8.88C-121.75 -10 -121.38 -10.88 -120.63 -11.5C-119.89 -12.13 -118.7 -12.5 -117.08 -12.63L-113.11 -12.93L-113.11 -7.36C-113.76 -6.71 -114.49 -6.23 -115.31 -5.93Z M-79.68 -6.95C-81 -6.72 -82.04 -6.6 -82.8 -6.6C-83.96 -6.6 -84.89 -6.77 -85.58 -7.1C-86.28 -7.44 -86.8 -7.99 -87.13 -8.77C-87.47 -9.55 -87.63 -10.61 -87.63 -11.95L-87.63 -22.87L-79.84 -22.87L-79.84 -29.71L-87.63 -29.71L-87.63 -40.2L-94.75 -40.2L-96.32 -29.71L-101.16 -29.71L-101.16 -22.87L-96.32 -22.87L-96.32 -10.59C-96.32 -6.79 -95.38 -3.98 -93.49 -2.17C-91.59 -0.36 -88.82 0.54 -85.16 0.54C-83.33 0.54 -81.5 0.33 -79.68 -0.08Z M-57.19 -28.98C-59.18 -29.78 -61.79 -30.18 -65.04 -30.18C-66.59 -30.18 -68.23 -30.07 -69.95 -29.85C-71.67 -29.63 -73.24 -29.32 -74.65 -28.93L-74.65 -22.41C-73.36 -22.81 -72 -23.1 -70.56 -23.3C-69.12 -23.5 -67.8 -23.6 -66.58 -23.6C-64.9 -23.6 -63.57 -23.43 -62.6 -23.1C-61.64 -22.76 -60.93 -22.21 -60.49 -21.43C-60.04 -20.65 -59.82 -19.57 -59.82 -18.2L-59.82 -17.82L-64.66 -17.41C-68.93 -17.14 -72.06 -16.22 -74.04 -14.67C-76.02 -13.11 -77.01 -10.91 -77.01 -8.07C-77.01 -6.35 -76.63 -4.84 -75.86 -3.54C-75.09 -2.25 -73.98 -1.24 -72.53 -0.53C-71.08 0.19 -69.36 0.54 -67.37 0.54C-65.71 0.54 -64.19 0.26 -62.84 -0.31C-61.48 -0.88 -60.36 -1.76 -59.49 -2.93L-59.09 -2.93L-58.49 0L-51.32 0L-51.32 -17.65C-51.32 -20.77 -51.8 -23.24 -52.76 -25.06C-53.72 -26.88 -55.19 -28.18 -57.19 -28.98ZM-62.02 -5.93C-62.84 -5.64 -63.67 -5.49 -64.52 -5.49C-65.81 -5.49 -66.78 -5.78 -67.45 -6.36C-68.12 -6.93 -68.46 -7.78 -68.46 -8.88C-68.46 -10 -68.09 -10.88 -67.34 -11.5C-66.6 -12.13 -65.42 -12.5 -63.79 -12.63L-59.82 -12.93L-59.82 -7.36C-60.47 -6.71 -61.21 -6.23 -62.02 -5.93Z M-44.72 0L-35.87 0L-35.87 -40.2L-44.72 -40.2Z M-29.02 -29.71L-29.02 0L-20.33 0L-20.33 -20.26C-19.7 -21.06 -18.89 -21.66 -17.91 -22.08C-16.93 -22.5 -15.93 -22.71 -14.9 -22.71C-13.52 -22.71 -12.48 -22.35 -11.77 -21.63C-11.07 -20.92 -10.71 -19.7 -10.71 -17.98L-10.71 0L-2.02 0L-2.02 -18.5C-2.02 -22.52 -2.93 -25.47 -4.74 -27.35C-6.55 -29.23 -9.02 -30.18 -12.15 -30.18C-13.91 -30.18 -15.53 -29.88 -17.02 -29.28C-18.5 -28.68 -19.79 -27.82 -20.87 -26.7L-21.28 -26.7L-21.88 -29.71Z M16.55 -36.27C17.51 -37.11 19.04 -37.54 21.14 -37.54C22.19 -37.54 23.2 -37.46 24.16 -37.32L24.16 -44.11C22.75 -44.33 21.3 -44.43 19.81 -44.43C16.95 -44.43 14.53 -43.94 12.53 -42.94C10.54 -41.94 9.04 -40.51 8.01 -38.64C6.99 -36.76 6.48 -34.5 6.48 -31.86L6.48 -29.71L1.64 -29.71L1.64 -22.87L6.48 -22.87L6.48 0L15.11 0L15.11 -22.87L22.91 -22.87L22.91 -29.71L15.11 -29.71L15.11 -32.27C15.11 -34.1 15.59 -35.43 16.55 -36.27Z M31.29 -1.14C33.45 0 36.04 0.57 39.04 0.57C42.05 0.57 44.63 0 46.8 -1.14C48.96 -2.28 50.63 -4 51.79 -6.3C52.96 -8.6 53.55 -11.44 53.55 -14.83C53.55 -19.88 52.28 -23.7 49.76 -26.29C47.23 -28.88 43.66 -30.18 39.04 -30.18C34.41 -30.18 30.83 -28.89 28.31 -26.3C25.8 -23.72 24.54 -19.88 24.54 -14.78C24.54 -11.41 25.12 -8.58 26.29 -6.29C27.46 -4 29.13 -2.28 31.29 -1.14ZM42.22 -6.84C41.39 -6.3 40.33 -6.03 39.04 -6.03C37.76 -6.03 36.7 -6.3 35.87 -6.84C35.03 -7.39 34.39 -8.31 33.95 -9.6C33.51 -10.9 33.29 -12.65 33.29 -14.86C33.29 -17.05 33.51 -18.78 33.95 -20.06C34.39 -21.33 35.04 -22.24 35.88 -22.79C36.72 -23.33 37.78 -23.6 39.04 -23.6C40.31 -23.6 41.37 -23.33 42.21 -22.79C43.05 -22.24 43.69 -21.32 44.14 -20.02C44.58 -18.71 44.8 -16.96 44.8 -14.75C44.8 -12.58 44.58 -10.85 44.14 -9.57C43.69 -8.3 43.05 -7.39 42.22 -6.84Z M76.92 0.07C78.86 0.37 80.82 0.52 82.77 0.52C86.14 0.52 89.03 0.02 91.45 -0.96C93.87 -1.95 95.72 -3.38 97 -5.24C98.29 -7.11 98.93 -9.32 98.93 -11.87C98.93 -14.95 98.01 -17.43 96.18 -19.31C94.34 -21.19 91.46 -22.62 87.55 -23.6L84.51 -24.36C83.19 -24.73 82.16 -25.11 81.43 -25.5C80.69 -25.9 80.17 -26.37 79.87 -26.92C79.56 -27.46 79.4 -28.14 79.4 -28.95C79.4 -30.44 80.06 -31.58 81.36 -32.39C82.66 -33.19 84.82 -33.6 87.82 -33.6C89.4 -33.6 90.98 -33.49 92.56 -33.27C94.15 -33.05 95.58 -32.75 96.87 -32.35L96.87 -39.55C95.55 -39.91 94.07 -40.19 92.43 -40.4C90.79 -40.61 89.09 -40.71 87.33 -40.71C81.81 -40.71 77.64 -39.65 74.81 -37.52C71.99 -35.39 70.58 -32.38 70.58 -28.49C70.58 -25.45 71.46 -22.98 73.24 -21.09C75.01 -19.2 77.69 -17.81 81.28 -16.92L84.29 -16.13C85.8 -15.74 86.96 -15.32 87.8 -14.9C88.63 -14.47 89.22 -13.97 89.58 -13.4C89.93 -12.83 90.1 -12.12 90.1 -11.27C90.1 -9.73 89.53 -8.57 88.37 -7.78C87.21 -6.99 85.33 -6.6 82.74 -6.6C80.99 -6.6 79.1 -6.76 77.08 -7.08C75.06 -7.39 73.21 -7.82 71.53 -8.37L71.53 -1.2C73.17 -0.65 74.97 -0.23 76.92 0.07Z M108.26 0.07C110.21 0.37 112.16 0.52 114.11 0.52C117.48 0.52 120.38 0.02 122.79 -0.96C125.21 -1.95 127.06 -3.38 128.35 -5.24C129.63 -7.11 130.28 -9.32 130.28 -11.87C130.28 -14.95 129.36 -17.43 127.52 -19.31C125.68 -21.19 122.81 -22.62 118.89 -23.6L115.85 -24.36C114.53 -24.73 113.5 -25.11 112.77 -25.5C112.04 -25.9 111.52 -26.37 111.21 -26.92C110.9 -27.46 110.75 -28.14 110.75 -28.95C110.75 -30.44 111.4 -31.58 112.7 -32.39C114.01 -33.19 116.16 -33.6 119.17 -33.6C120.74 -33.6 122.32 -33.49 123.91 -33.27C125.49 -33.05 126.93 -32.75 128.21 -32.35L128.21 -39.55C126.89 -39.91 125.41 -40.19 123.77 -40.4C122.13 -40.61 120.43 -40.71 118.68 -40.71C113.15 -40.71 108.98 -39.65 106.16 -37.52C103.33 -35.39 101.92 -32.38 101.92 -28.49C101.92 -25.45 102.81 -22.98 104.58 -21.09C106.36 -19.2 109.04 -17.81 112.62 -16.92L115.64 -16.13C117.14 -15.74 118.31 -15.32 119.14 -14.9C119.97 -14.47 120.57 -13.97 120.92 -13.4C121.27 -12.83 121.45 -12.12 121.45 -11.27C121.45 -9.73 120.87 -8.57 119.71 -7.78C118.55 -6.99 116.68 -6.6 114.09 -6.6C112.33 -6.6 110.44 -6.76 108.42 -7.08C106.41 -7.39 104.55 -7.82 102.87 -8.37L102.87 -1.2C104.52 -0.65 106.31 -0.23 108.26 0.07Z M135.38 -0.24C138.88 0.19 142.54 0.41 146.38 0.41C151.78 0.41 156.23 -0.3 159.74 -1.72C163.26 -3.15 165.89 -5.37 167.65 -8.39C169.4 -11.42 170.28 -15.32 170.28 -20.1C170.28 -27.07 168.44 -32.23 164.74 -35.59C161.05 -38.95 155.52 -40.63 148.15 -40.63C146.03 -40.63 143.84 -40.51 141.59 -40.28C139.33 -40.04 137.26 -39.72 135.38 -39.3ZM155.72 -8.12C153.9 -7.23 151.55 -6.79 148.69 -6.79C146.88 -6.79 145.39 -6.85 144.24 -6.98L144.24 -33.08C145.81 -33.35 147.31 -33.49 148.74 -33.49C151.55 -33.49 153.87 -33.04 155.7 -32.13C157.53 -31.23 158.9 -29.79 159.81 -27.83C160.73 -25.86 161.18 -23.29 161.18 -20.13C161.18 -16.92 160.73 -14.34 159.83 -12.39C158.92 -10.43 157.55 -9.01 155.72 -8.12Z"></path></g></g></g></svg>