<svg xmlns="http://www.w3.org/2000/svg" version="1.1" xmlns:xlink="http://www.w3.org/1999/xlink" xmlns:svgjs="http://svgjs.com/svgjs" width="1000" height="1000" overflow="visible"><g class="overview-logo-monotone" opacity="1"><defs id="SvgjsDefs1067"></defs><g id="SvgjsG1068" transform="scale(1.2311688311688311)" opacity="1"><g id="SvgjsG1069" class="4E_V8M433" transform="translate(161.7, 0.000028124524502004532) scale(1.0828125)" light-content="false" non-strokable="false" fill="#ffffff"><path d="M126 73a2 2 0 0 0 0-4H98.3a2 2 0 0 0-2 1.6 33 33 0 0 1-64.68 0 2 2 0 0 0-2-1.6H2a2 2 0 0 0 0 4h26.1a37 37 0 0 0 15.1 21.56L38.13 100H2a2 2 0 0 0 0 4h37a2 2 0 0 0 1.46-.64l6.24-6.69A36.91 36.91 0 0 0 96 82.48l7.17 5.6a2 2 0 0 0 1.23.42H126a2 2 0 0 0 0-4h-20.87L98 78.94l-.12-.08a36.61 36.61 0 0 0 2-5.87z"></path><path d="M41 64a2 2 0 0 0-4 0 26.78 26.78 0 0 0 10.53 21.39A2 2 0 0 0 50 82.21 22.81 22.81 0 0 1 41 64zm23-27a2 2 0 0 0 0 4 23 23 0 0 1 0 46 22.65 22.65 0 0 1-4.82-.51 2 2 0 0 0-.85 3.91A26.68 26.68 0 0 0 64 91a27 27 0 0 0 0-54z"></path><path d="M64 81a2 2 0 0 0 0-4 13 13 0 1 1 13-13 2 2 0 0 0 4 0 17 17 0 1 0-17 17zm35.9-26a37.19 37.19 0 0 0-11.24-18.57 2 2 0 0 0-2.67 3 33.11 33.11 0 0 1 10.34 18 2 2 0 0 0 2 1.6H112a2 2 0 0 0 2-2v-6.41a7 7 0 1 0-4 .15V55z"></path><circle cx="64" cy="64" r="7"></circle><path d="M2 11h26a2 2 0 0 0 1.46-.64L35.4 4h49.05l16.17 10.67a2 2 0 0 0 1.1.33H126a2 2 0 0 0 0-4h-23.67L86.16.33A2 2 0 0 0 85.05 0H34.53a2 2 0 0 0-1.46.64L27.13 7H2a2 2 0 0 0 0 4z"></path><path d="M2 20h32a2 2 0 0 0 1.46-.64l6.53-7a2 2 0 0 0-2.92-2.73L33.13 16H2a2 2 0 0 0 0 4zm0 8h36.13l5.07 5.44A37 37 0 0 0 28.1 55H18v-9.25a7 7 0 1 0-4-.11V57a2 2 0 0 0 2 2h13.7a2 2 0 0 0 2-1.6A33.1 33.1 0 0 1 64 31a32.72 32.72 0 0 1 12.57 2.48 2 2 0 1 0 1.53-3.7 36.91 36.91 0 0 0-31.4 1.54l-6.24-6.69A2 2 0 0 0 39 24H2a2 2 0 0 0 0 4zm124-4H99.33L83.16 13.33a2 2 0 0 0-1.1-.33H58.71a7 7 0 1 0 0 4h22.74l16.18 10.67a2 2 0 0 0 1.1.33H126a2 2 0 0 0 0-4zm0 89h-24.27a2 2 0 0 0-1.1.33L84.45 124H35.4l-5.94-6.36A2 2 0 0 0 28 117H2a2 2 0 0 0 0 4h25.13l5.94 6.36a2 2 0 0 0 1.46.64h50.52a2 2 0 0 0 1.1-.33L102.33 117H126a2 2 0 0 0 0-4z"></path><path d="M2 112h31.13l5.94 6.36a2 2 0 1 0 2.93-2.72l-6.53-7A2 2 0 0 0 34 108H2a2 2 0 0 0 0 4zm124-12H98.73a2 2 0 0 0-1.1.33L81.45 111H58.71a7 7 0 1 0 0 4h23.34a2 2 0 0 0 1.1-.33L99.33 104H126a2 2 0 0 0 0-4z"></path></g><g id="SvgjsG1070" class="text" transform="translate(230.27000427246094, 190.75496381586203) scale(1)" light-content="false" fill="#ffffff"><path d="M-230.27 0L-221.99 0C-215.66 0 -210.81 -1.76 -207.45 -5.29C-204.09 -8.81 -202.41 -13.88 -202.41 -20.51C-202.41 -26.73 -204.03 -31.57 -207.27 -35.04C-210.51 -38.51 -215.04 -40.24 -220.86 -40.24L-230.27 -40.24ZM-225.12 -35.87L-221.41 -35.87C-212.36 -35.87 -207.84 -30.69 -207.84 -20.34C-207.84 -9.72 -212.72 -4.4 -222.48 -4.4L-225.12 -4.4Z M-166.88 0L-161.6 0L-174.95 -40.41L-180.32 -40.41L-193.61 0L-188.38 0L-184.36 -12.47L-170.85 -12.47ZM-172.31 -17.01L-182.9 -17.01L-178.94 -29.87C-178.46 -31.41 -178.04 -33.09 -177.67 -34.9C-177.25 -33.03 -176.68 -30.96 -175.97 -28.68Z M-135.59 0L-135.59 -35.73L-124.11 -35.73L-124.11 -40.24L-152.24 -40.24L-152.24 -35.73L-140.74 -35.73L-140.74 0Z M-87.95 0L-82.66 0L-96.01 -40.41L-101.38 -40.41L-114.68 0L-109.45 0L-105.43 -12.47L-91.91 -12.47ZM-93.37 -17.01L-103.97 -17.01L-100 -29.87C-99.53 -31.41 -99.11 -33.09 -98.74 -34.9C-98.32 -33.03 -97.75 -30.96 -97.03 -28.68Z M-48.56 0L-48.56 -3.39L-56.66 -3.94L-56.66 -36.31L-48.56 -36.86L-48.56 -40.24L-69.92 -40.24L-69.92 -36.86L-61.8 -36.31L-61.8 -3.94L-69.92 -3.39L-69.92 0Z M-6.59 0L-6.59 -40.24L-11.38 -40.24L-11.38 -18.22C-11.38 -16.37 -11.25 -12.66 -10.99 -7.1L-11.16 -7.1L-27.07 -40.24L-32.93 -40.24L-32.93 0L-28.2 0L-28.2 -21.83C-28.2 -24.4 -28.36 -28.22 -28.69 -33.31L-28.47 -33.31L-12.51 0Z M14.66 0L14.66 -17.01L31.64 -17.01L31.64 -21.53L14.66 -21.53L14.66 -35.73L32.69 -35.73L32.69 -40.24L9.54 -40.24L9.54 0Z M59.24 0.55C63.92 0.55 67.53 -1.25 70.06 -4.84C72.59 -8.44 73.86 -13.55 73.86 -20.18C73.86 -26.8 72.61 -31.91 70.1 -35.5C67.6 -39.08 64 -40.88 59.3 -40.88C49.5 -40.88 44.6 -34 44.6 -20.23C44.6 -6.38 49.48 0.55 59.24 0.55ZM59.24 -3.94C53.1 -3.94 50.02 -9.35 50.02 -20.18C50.02 -30.97 53.11 -36.36 59.3 -36.36C62.4 -36.36 64.7 -35.06 66.19 -32.44C67.69 -29.83 68.44 -25.74 68.44 -20.18C68.44 -14.67 67.7 -10.59 66.22 -7.93C64.74 -5.27 62.42 -3.94 59.24 -3.94Z M125.1 -1.35C127.84 -0.08 131.64 0.55 136.5 0.55C141.18 0.55 144.79 -0.45 147.33 -2.46C149.87 -4.47 151.14 -7.24 151.14 -10.76C151.14 -13.46 150.39 -15.67 148.87 -17.38C147.36 -19.1 144.34 -20.76 139.83 -22.38C136.07 -23.68 133.59 -24.9 132.38 -26.04C131.18 -27.18 130.58 -28.68 130.58 -30.55C130.58 -34.39 133.27 -36.31 138.65 -36.31C141.71 -36.31 145.01 -35.59 148.56 -34.16L150.32 -38.68C146.89 -40.11 143.07 -40.82 138.87 -40.82C134.76 -40.82 131.52 -39.92 129.16 -38.11C126.81 -36.3 125.63 -33.8 125.63 -30.61C125.63 -27.64 126.46 -25.22 128.12 -23.36C129.78 -21.49 132.52 -19.89 136.33 -18.55C140.28 -17.14 142.9 -15.92 144.19 -14.89C145.49 -13.86 146.13 -12.4 146.13 -10.49C146.13 -6.08 142.92 -3.88 136.5 -3.88C132.77 -3.88 128.98 -4.67 125.1 -6.25Z M164.57 -1.35C167.31 -0.08 171.1 0.55 175.97 0.55C180.65 0.55 184.26 -0.45 186.8 -2.46C189.34 -4.47 190.61 -7.24 190.61 -10.76C190.61 -13.46 189.85 -15.67 188.34 -17.38C186.83 -19.1 183.81 -20.76 179.3 -22.38C175.54 -23.68 173.05 -24.9 171.85 -26.04C170.65 -27.18 170.05 -28.68 170.05 -30.55C170.05 -34.39 172.74 -36.31 178.11 -36.31C181.18 -36.31 184.48 -35.59 188.02 -34.16L189.79 -38.68C186.35 -40.11 182.54 -40.82 178.33 -40.82C174.22 -40.82 170.99 -39.92 168.63 -38.11C166.27 -36.3 165.09 -33.8 165.09 -30.61C165.09 -27.64 165.92 -25.22 167.59 -23.36C169.25 -21.49 171.99 -19.89 175.8 -18.55C179.75 -17.14 182.37 -15.92 183.66 -14.89C184.95 -13.86 185.6 -12.4 185.6 -10.49C185.6 -6.08 182.39 -3.88 175.97 -3.88C172.24 -3.88 168.44 -4.67 164.57 -6.25Z M203.87 0L212.16 0C218.49 0 223.34 -1.76 226.69 -5.29C230.05 -8.81 231.73 -13.88 231.73 -20.51C231.73 -26.73 230.11 -31.57 226.87 -35.04C223.63 -38.51 219.11 -40.24 213.29 -40.24L203.87 -40.24ZM209.02 -35.87L212.74 -35.87C221.78 -35.87 226.31 -30.69 226.31 -20.34C226.31 -9.72 221.43 -4.4 211.66 -4.4L209.02 -4.4Z"></path></g><g id="SvgjsG1071" class="text" transform="translate(230.90048087299016, 216.98529976026947) scale(1)" light-content="false" fill="#ffffff"><path d="M-92.31 0L-92.31 -1.13L-95 -1.31L-95 -12.1L-92.31 -12.29L-92.31 -13.41L-99.43 -13.41L-99.43 -12.29L-96.72 -12.1L-96.72 -1.31L-99.43 -1.13L-99.43 0Z M-82.08 0L-80.41 0L-80.41 -6.58C-80.41 -9.03 -81.6 -10.26 -83.97 -10.26C-85.4 -10.26 -86.43 -9.74 -87.06 -8.72L-87.15 -8.72L-87.4 -10.07L-88.75 -10.07L-88.75 0L-87.08 0L-87.08 -5.22C-87.08 -7.66 -86.14 -8.87 -84.26 -8.87C-82.8 -8.87 -82.08 -8.08 -82.08 -6.49Z M-69.36 -8.82L-69.36 -10.07L-72.93 -10.07L-72.93 -11.03C-72.93 -11.73 -72.79 -12.24 -72.52 -12.54C-72.25 -12.85 -71.74 -13 -70.99 -13C-70.36 -13 -69.73 -12.92 -69.09 -12.74L-68.72 -14.06C-69.47 -14.27 -70.24 -14.38 -71.03 -14.38C-72.31 -14.38 -73.22 -14.11 -73.77 -13.58C-74.32 -13.05 -74.6 -12.19 -74.6 -11.01L-74.6 -10.13L-77.51 -9.83L-77.51 -8.82L-74.6 -8.82L-74.6 0L-72.93 0L-72.93 -8.82Z M-62.06 0.18C-60.67 0.18 -59.55 -0.28 -58.71 -1.22C-57.88 -2.16 -57.46 -3.43 -57.46 -5.06C-57.46 -6.63 -57.88 -7.89 -58.73 -8.84C-59.58 -9.78 -60.67 -10.26 -62.01 -10.26C-63.42 -10.26 -64.53 -9.79 -65.36 -8.86C-66.19 -7.93 -66.61 -6.66 -66.61 -5.06C-66.61 -3.47 -66.18 -2.19 -65.33 -1.24C-64.47 -0.29 -63.38 0.18 -62.06 0.18ZM-62.03 -1.2C-63.93 -1.2 -64.88 -2.49 -64.88 -5.06C-64.88 -7.6 -63.94 -8.87 -62.05 -8.87C-60.14 -8.87 -59.18 -7.6 -59.18 -5.06C-59.18 -2.49 -60.13 -1.2 -62.03 -1.2Z M-46.67 -9.85C-47.41 -10.12 -48.15 -10.26 -48.87 -10.26C-49.65 -10.26 -50.3 -10.1 -50.83 -9.79C-51.36 -9.48 -51.86 -8.96 -52.33 -8.23L-52.4 -8.23L-52.6 -10.07L-53.96 -10.07L-53.96 0L-52.29 0L-52.29 -5.43C-52.29 -6.5 -52.02 -7.32 -51.48 -7.89C-50.94 -8.45 -50.17 -8.74 -49.17 -8.74C-48.55 -8.74 -47.87 -8.6 -47.12 -8.32Z M-36.14 0L-34.66 0L-34.66 -6.58C-34.66 -7.9 -34.83 -8.84 -35.19 -9.41C-35.54 -9.98 -36.11 -10.26 -36.89 -10.26C-37.77 -10.26 -38.44 -9.7 -38.9 -8.59L-38.96 -8.59C-39.27 -9.7 -39.92 -10.26 -40.91 -10.26C-41.73 -10.26 -42.35 -9.74 -42.76 -8.72L-42.85 -8.72L-43.1 -10.07L-44.26 -10.07L-44.26 0L-42.78 0L-42.78 -5.22C-42.78 -6.68 -42.67 -7.66 -42.45 -8.14C-42.23 -8.63 -41.86 -8.87 -41.35 -8.87C-40.58 -8.87 -40.2 -8.08 -40.2 -6.49L-40.2 0L-38.72 0L-38.72 -5.56C-38.72 -6.75 -38.6 -7.6 -38.36 -8.11C-38.12 -8.62 -37.73 -8.87 -37.2 -8.87C-36.82 -8.87 -36.55 -8.7 -36.39 -8.35C-36.22 -8 -36.14 -7.38 -36.14 -6.49Z M-25.62 0L-24.42 0L-24.42 -6.9C-24.42 -8.07 -24.73 -8.93 -25.35 -9.46C-25.97 -9.99 -26.97 -10.26 -28.36 -10.26C-29.51 -10.26 -30.68 -9.96 -31.88 -9.38L-31.3 -8.12C-30.19 -8.62 -29.19 -8.87 -28.29 -8.87C-26.8 -8.87 -26.05 -8.15 -26.05 -6.71L-26.05 -6.07L-27.91 -6.01C-31.03 -5.91 -32.59 -4.85 -32.59 -2.82C-32.59 -1.87 -32.31 -1.13 -31.74 -0.61C-31.18 -0.08 -30.4 0.18 -29.4 0.18C-28.62 0.18 -27.98 0.07 -27.48 -0.16C-26.99 -0.39 -26.5 -0.8 -26.03 -1.39L-25.96 -1.39ZM-26.07 -4.93L-26.07 -4.02C-26.07 -3.11 -26.34 -2.41 -26.87 -1.91C-27.41 -1.41 -28.12 -1.17 -29.02 -1.17C-30.25 -1.17 -30.86 -1.71 -30.86 -2.8C-30.86 -3.47 -30.61 -3.97 -30.11 -4.3C-29.6 -4.63 -28.75 -4.81 -27.55 -4.86Z M-12.82 -9.72C-13.78 -10.08 -14.81 -10.26 -15.9 -10.26C-17.51 -10.26 -18.76 -9.81 -19.64 -8.91C-20.53 -8.01 -20.98 -6.7 -20.98 -4.98C-20.98 -3.32 -20.54 -2.04 -19.67 -1.15C-18.8 -0.26 -17.58 0.18 -16.01 0.18C-14.82 0.18 -13.81 0 -12.99 -0.38L-12.99 -1.84C-14 -1.47 -14.98 -1.28 -15.94 -1.28C-18.15 -1.28 -19.25 -2.52 -19.25 -5C-19.25 -7.53 -18.12 -8.79 -15.85 -8.79C-15.12 -8.79 -14.3 -8.62 -13.39 -8.27Z M-5.47 -14.22C-6.12 -14.22 -6.45 -13.87 -6.45 -13.18C-6.45 -12.47 -6.12 -12.12 -5.47 -12.12C-5.21 -12.12 -4.98 -12.21 -4.79 -12.38C-4.59 -12.56 -4.5 -12.82 -4.5 -13.18C-4.5 -13.87 -4.82 -14.22 -5.47 -14.22ZM-6.31 -8.75L-6.31 -1.31L-9.47 -1.13L-9.47 0L-1.41 0L-1.41 -1.13L-4.64 -1.31L-4.64 -10.07L-8.78 -10.07L-8.78 -8.95Z M5.6 0.18C6.99 0.18 8.11 -0.28 8.95 -1.22C9.78 -2.16 10.2 -3.43 10.2 -5.06C10.2 -6.63 9.78 -7.89 8.93 -8.84C8.08 -9.78 6.99 -10.26 5.65 -10.26C4.25 -10.26 3.13 -9.79 2.3 -8.86C1.47 -7.93 1.06 -6.66 1.06 -5.06C1.06 -3.47 1.48 -2.19 2.34 -1.24C3.19 -0.29 4.28 0.18 5.6 0.18ZM5.63 -1.2C3.73 -1.2 2.78 -2.49 2.78 -5.06C2.78 -7.6 3.73 -8.87 5.62 -8.87C7.52 -8.87 8.48 -7.6 8.48 -5.06C8.48 -2.49 7.53 -1.2 5.63 -1.2ZM4.57 -11.63L4.57 -11.39L5.68 -11.39C6.66 -12.21 7.49 -13.15 8.18 -14.2L8.18 -14.4L6.17 -14.4C5.68 -13.37 5.14 -12.45 4.57 -11.63Z M19.42 0L21.09 0L21.09 -6.58C21.09 -9.03 19.9 -10.26 17.52 -10.26C16.09 -10.26 15.06 -9.74 14.43 -8.72L14.34 -8.72L14.09 -10.07L12.74 -10.07L12.74 0L14.41 0L14.41 -5.22C14.41 -7.66 15.35 -8.87 17.23 -8.87C18.69 -8.87 19.42 -8.08 19.42 -6.49Z M35.69 -0.45C36.47 -0.03 37.62 0.18 39.13 0.18C40.44 0.18 41.46 -0.08 42.17 -0.6C42.89 -1.12 43.24 -1.84 43.24 -2.76C43.24 -3.42 43.03 -3.98 42.61 -4.44C42.18 -4.89 41.32 -5.36 40.03 -5.83C38.92 -6.22 38.21 -6.53 37.9 -6.76C37.59 -6.98 37.44 -7.28 37.44 -7.65C37.44 -8.47 38.16 -8.87 39.6 -8.87C40.44 -8.87 41.42 -8.65 42.53 -8.21L43.08 -9.58C42.03 -10.03 40.9 -10.26 39.69 -10.26C38.49 -10.26 37.54 -10.02 36.86 -9.55C36.18 -9.07 35.84 -8.42 35.84 -7.59C35.84 -6.98 36.02 -6.46 36.39 -6.01C36.76 -5.57 37.66 -5.08 39.09 -4.55C40.17 -4.16 40.86 -3.84 41.16 -3.58C41.46 -3.32 41.61 -3.02 41.61 -2.67C41.61 -1.68 40.77 -1.18 39.09 -1.18C38.01 -1.18 36.87 -1.45 35.69 -1.97Z M50.7 0.18C52.1 0.18 53.22 -0.28 54.05 -1.22C54.89 -2.16 55.31 -3.43 55.31 -5.06C55.31 -6.63 54.89 -7.89 54.03 -8.84C53.18 -9.78 52.09 -10.26 50.76 -10.26C49.35 -10.26 48.23 -9.79 47.41 -8.86C46.58 -7.93 46.16 -6.66 46.16 -5.06C46.16 -3.47 46.59 -2.19 47.44 -1.24C48.3 -0.29 49.38 0.18 50.7 0.18ZM50.74 -1.2C48.84 -1.2 47.89 -2.49 47.89 -5.06C47.89 -7.6 48.83 -8.87 50.72 -8.87C52.63 -8.87 53.59 -7.6 53.59 -5.06C53.59 -2.49 52.64 -1.2 50.74 -1.2Z M61.27 -12.97L61.27 -1.31L58.11 -1.13L58.11 0L66.17 0L66.17 -1.13L62.94 -1.31L62.94 -14.28L58.81 -14.28L58.81 -13.16Z M73.47 -14.22C72.81 -14.22 72.49 -13.87 72.49 -13.18C72.49 -12.47 72.81 -12.12 73.47 -12.12C73.73 -12.12 73.96 -12.21 74.15 -12.38C74.35 -12.56 74.44 -12.82 74.44 -13.18C74.44 -13.87 74.12 -14.22 73.47 -14.22ZM72.62 -8.75L72.62 -1.31L69.47 -1.13L69.47 0L77.52 0L77.52 -1.13L74.29 -1.31L74.29 -10.07L70.16 -10.07L70.16 -8.95Z M87.17 -1.35L87.42 0L88.76 0L88.76 -14.28L87.09 -14.28L87.09 -10.28C87.09 -10.07 87.13 -9.58 87.2 -8.79L87.09 -8.79C86.38 -9.77 85.4 -10.26 84.14 -10.26C82.92 -10.26 81.95 -9.8 81.25 -8.88C80.55 -7.96 80.19 -6.67 80.19 -5.02C80.19 -3.38 80.54 -2.1 81.25 -1.19C81.95 -0.27 82.91 0.18 84.14 0.18C85.42 0.18 86.4 -0.33 87.09 -1.35ZM87.09 -4.64C87.07 -3.43 86.85 -2.56 86.45 -2.01C86.04 -1.47 85.37 -1.2 84.44 -1.2C82.77 -1.2 81.93 -2.47 81.93 -5C81.93 -7.58 82.76 -8.87 84.42 -8.87C85.35 -8.87 86.03 -8.58 86.46 -7.99C86.88 -7.4 87.09 -6.41 87.09 -5.02Z M98.43 0L99.63 0L99.63 -6.9C99.63 -8.07 99.32 -8.93 98.7 -9.46C98.08 -9.99 97.07 -10.26 95.68 -10.26C94.54 -10.26 93.37 -9.96 92.17 -9.38L92.75 -8.12C93.85 -8.62 94.86 -8.87 95.76 -8.87C97.25 -8.87 98 -8.15 98 -6.71L98 -6.07L96.13 -6.01C93.01 -5.91 91.45 -4.85 91.45 -2.82C91.45 -1.87 91.74 -1.13 92.3 -0.61C92.87 -0.08 93.65 0.18 94.65 0.18C95.43 0.18 96.07 0.07 96.56 -0.16C97.06 -0.39 97.54 -0.8 98.01 -1.39L98.09 -1.39ZM97.98 -4.93L97.98 -4.02C97.98 -3.11 97.71 -2.41 97.17 -1.91C96.64 -1.41 95.92 -1.17 95.02 -1.17C93.8 -1.17 93.19 -1.71 93.19 -2.8C93.19 -3.47 93.44 -3.97 93.94 -4.3C94.44 -4.63 95.29 -4.81 96.49 -4.86Z"></path></g></g></g></svg>